<?xml version="1.0" encoding="UTF-8" standalone="no"?>
<svg
   data-name="Layer 1"
   width="532.48639"
   height="292.64212"
   viewBox="0 0 532.48641 292.64212"
   version="1.1"
   id="svg24456"
   sodipodi:docname="cover-image.svg"
   inkscape:version="1.2.2 (b0a84865, 2022-12-01)"
   xmlns:inkscape="http://www.inkscape.org/namespaces/inkscape"
   xmlns:sodipodi="http://sodipodi.sourceforge.net/DTD/sodipodi-0.dtd"
   xmlns="http://www.w3.org/2000/svg"
   xmlns:svg="http://www.w3.org/2000/svg">
  <defs
     id="defs24460" />
  <sodipodi:namedview
     id="namedview24458"
     pagecolor="#ffffff"
     bordercolor="#000000"
     borderopacity="0.25"
     inkscape:showpageshadow="2"
     inkscape:pageopacity="0.0"
     inkscape:pagecheckerboard="0"
     inkscape:deskcolor="#d1d1d1"
     showgrid="false"
     inkscape:zoom="1.0197007"
     inkscape:cx="323.13402"
     inkscape:cy="351.57374"
     inkscape:window-width="1728"
     inkscape:window-height="1051"
     inkscape:window-x="0"
     inkscape:window-y="38"
     inkscape:window-maximized="0"
     inkscape:current-layer="svg24456" />
  <path
     d="m 323.86971,184.24725 a 6.51369,6.51369 0 0 1 -6.48976,-6.0878 l -0.9666,-14.75858 a 6.51365,6.51365 0 0 1 6.07385,-6.92548 l 115.62688,-7.57232 a 13.90881,13.90881 0 0 1 1.81772,27.75816 l -115.62662,7.57183 q -0.21835,0.0139 -0.43547,0.0142 z"
     fill="#6c63ff"
     id="path24407"
     style="fill:#aabc52;fill-opacity:1" />
  <path
     d="m 346.66962,186.15012 a 6.52191,6.52191 0 0 1 -6.50615,-6.2708 l -0.824,-22.04369 a 6.513,6.513 0 0 1 6.26591,-6.75177 l 95.08311,-3.55375 a 6.51385,6.51385 0 0 1 6.75226,6.26591 l 0.824,22.04369 a 6.513,6.513 0 0 1 -6.2659,6.75177 l -95.08311,3.55375 c -0.0822,0.003 -0.16467,0.005 -0.24612,0.005 z"
     fill="#2f2e41"
     id="path24409"
     style="fill:#000000;fill-opacity:1" />
  <circle
     cx="435.62827"
     cy="73.304398"
     r="51.10582"
     fill="#6c63ff"
     id="circle24415"
     style="fill:#aabc52;fill-opacity:1" />
  <path
     d="m 407.96502,90.753715 a 12.12059,12.12059 0 0 1 -4.42606,-2.59809 8.15037,8.15037 0 0 1 -2.38243,-6.45236 5.48293,5.48293 0 0 1 2.43759,-4.21982 c 1.82759,-1.17234 4.27192,-1.1758 6.76064,-0.079 l -0.0942,-19.951 2.004,-0.01 0.11086,23.4545 -1.5442,-0.97135 c -1.79064,-1.12447 -4.34788,-1.916 -6.15482,-0.7566 a 3.521,3.521 0 0 0 -1.5247,2.72455 6.15892,6.15892 0 0 0 1.77145,4.81091 c 2.213,2.11392 5.44168,2.775 9.12357,3.36575 l -0.31763,1.97862 a 33.03108,33.03108 0 0 1 -5.76406,-1.29656 z"
     fill="#2f2e41"
     id="path24417" />
  <rect
     x="-6.9548216"
     y="393.63913"
     width="2.003897"
     height="10.794003"
     transform="rotate(-82.476651)"
     fill="#2f2e41"
     id="rect24419"
     style="stroke-width:0.999998" />
  <rect
     x="-6.9527516"
     y="427.70825"
     width="2.0039001"
     height="10.79402"
     transform="rotate(-82.4768)"
     fill="#2f2e41"
     id="rect24421" />
  <path
     d="m 392.12343,292.64211 h -9e-5 a 8.52716,8.52716 0 0 1 -8.51764,-8.51764 c 0,0 13.57921,-73.67742 21.339,-116.86035 a 36.37333,36.37333 0 0 1 35.79926,-29.94363 h 7e-5 a 46.07539,46.07539 0 0 1 46.07539,46.07539 v 14.55024 a 94.696,94.696 0 0 1 -94.69599,94.69599 z"
     fill="#2f2e41"
     id="path24423"
     style="fill:#000000;fill-opacity:1" />
  <path
     d="m 456.60126,285.2665 a 6.52391,6.52391 0 0 1 -5.98009,3.80507 l -14.78976,-0.12843 a 6.51295,6.51295 0 0 1 -6.45648,-6.56975 l 1.00467,-115.87 a 13.90824,13.90824 0 1 1 27.81543,0.24117 l -1.00412,115.87 a 6.47722,6.47722 0 0 1 -0.58965,2.65194 z"
     fill="#6c63ff"
     id="path24425"
     style="fill:#aabc52;fill-opacity:1" />
  <path
     d="m 463.13488,254.33423 a 6.52358,6.52358 0 0 1 -5.98,3.80485 l -25.26174,-0.21914 a 6.5209,6.5209 0 0 1 -6.45648,-6.56976 l 0.82512,-95.1459 a 6.51295,6.51295 0 0 1 6.56963,-6.45681 l 25.2613,0.21894 a 6.51295,6.51295 0 0 1 6.45649,6.56975 l -0.82468,95.14611 a 6.48519,6.48519 0 0 1 -0.58964,2.65196 z"
     fill="#2f2e41"
     id="path24427"
     style="fill:#000000;fill-opacity:1" />
  <path
     d="m 420.87692,43.189845 c -7.9642,1.35175 -16.85609,2.89733 -24.44478,-0.79571 -5.97328,-2.9069 -10.08009,-8.71259 -8.62518,-15.53409 2.89548,-13.57569 18.43743,-19.5776303 30.92767,-18.3664003 a 33.17835,33.17835 0 0 1 19.63021,8.8508403 1.81749,1.81749 0 0 0 3.06741,-1.27056 c -0.0531,-5.00947 3.69455,-9.1896903 8.13532,-11.0767003 5.56,-2.36261 12.02054,-1.51832 17.73484,-0.254 a 78.74679,78.74679 0 0 1 60.83363,65.8580003 77.868,77.868 0 0 1 -2.5009,33.350225 c -3.03124,9.95948 -8.63018,19.96974 -17.84813,25.38834 -8.30647,4.8828 -20.38476,6.14019 -28.04987,-0.71022 -6.13981,-5.48723 -8.90734,-15.74534 -3.87,-22.84427 a 14.06282,14.06282 0 0 1 13.23124,-5.72048 12.59183,12.59183 0 0 1 10.15717,9.0336 12.34855,12.34855 0 0 1 -4.28719,12.17557 11.98985,11.98985 0 0 1 -17.08764,-3.2621 c -1.22071,-1.95857 -4.331,-0.15647 -3.103,1.8138 a 15.91988,15.91988 0 0 0 13.08837,7.34165 14.71593,14.71593 0 0 0 12.95418,-7.25451 15.35938,15.35938 0 0 0 0.45435,-15.36104 16.45392,16.45392 0 0 0 -13.71557,-8.213045 17.88422,17.88422 0 0 0 -14.795,7.632825 19.00308,19.00308 0 0 0 -2.76852,13.93458 23.0561,23.0561 0 0 0 6.77554,12.87447 23.81222,23.81222 0 0 0 15.10181,6.14228 c 12.18476,0.69494 23.06255,-6.32472 29.78312,-16.08243 6.97354,-10.125 10.092,-22.830325 10.72046,-34.977145 A 82.43531,82.43531 0 0 0 504.65121,19.846155 83.76892,83.76892 0 0 0 474.24202,2.8555547 c -11.10146,-3.40065002 -26.60128,-5.87948 -34.098,5.46345 a 13.81219,13.81219 0 0 0 -2.30549,7.7550003 l 3.06741,-1.27056 C 430.05928,4.4384447 413.00821,1.8193547 399.46417,8.1906247 c -6.8027,3.2000703 -12.70035,9.1506303 -14.81478,16.4875903 -2.19389,7.61272 0.97872,15.08455 7.48524,19.402 8.855,5.87575 19.83684,4.24871 29.6976,2.57506 2.27529,-0.38618 1.31047,-3.84989 -0.95534,-3.46532 z"
     fill="#2f2e41"
     id="path24429"
     style="fill:#000000;fill-opacity:1" />
  <path
     d="M 308.5,264.08354 H 17.5 A 17.52,17.52 0 0 1 0,246.58354 V 72.583545 a 17.52,17.52 0 0 1 17.5,-17.5 h 291 a 17.52,17.52 0 0 1 17.5,17.5 V 246.58354 a 17.52,17.52 0 0 1 -17.5,17.5 z M 17.5,58.083545 a 14.51669,14.51669 0 0 0 -14.5,14.5 V 246.58354 a 14.51669,14.51669 0 0 0 14.5,14.5 h 291 a 14.51669,14.51669 0 0 0 14.5,-14.5 V 72.583545 a 14.5167,14.5167 0 0 0 -14.5,-14.5 z"
     fill="#3f3d56"
     id="path24431"
     style="fill:#000000;fill-opacity:1" />
  <path
     d="m 56.5,96.083545 a 12.5,12.5 0 1 1 12.5,-12.5 12.51408,12.51408 0 0 1 -12.5,12.5 z m 0,-22 a 9.5,9.5 0 1 0 9.5,9.5 9.5108,9.5108 0 0 0 -9.5,-9.5 z"
     fill="#3f3d56"
     id="path24433"
     style="fill:#000000;fill-opacity:1" />
  <path
     d="m 267.5,96.083545 a 12.5,12.5 0 1 1 12.5,-12.5 12.51408,12.51408 0 0 1 -12.5,12.5 z m 0,-22 a 9.5,9.5 0 1 0 9.5,9.5 9.5108,9.5108 0 0 0 -9.5,-9.5 z"
     fill="#3f3d56"
     id="path24435"
     style="fill:#000000;fill-opacity:1" />
  <path
     d="M 86,172.08354 H 32 a 8.51012,8.51012 0 0 1 -8.5,-8.5 v -32 a 8.51013,8.51013 0 0 1 8.5,-8.5 h 54 a 8.51014,8.51014 0 0 1 8.5,8.5 v 32 a 8.51013,8.51013 0 0 1 -8.5,8.5 z"
     fill="#e6e6e6"
     id="path24437"
     style="fill:#d1d1d1;fill-opacity:1" />
  <path
     d="m 190,172.08354 h -54 a 8.51012,8.51012 0 0 1 -8.5,-8.5 v -32 a 8.51013,8.51013 0 0 1 8.5,-8.5 h 54 a 8.51014,8.51014 0 0 1 8.5,8.5 v 32 a 8.51013,8.51013 0 0 1 -8.5,8.5 z"
     fill="#e6e6e6"
     id="path24439"
     style="fill:#d1d1d1;fill-opacity:1" />
  <path
     d="m 240,124.08354 a 7.5082,7.5082 0 0 0 -7.5,7.5 v 32 a 7.50819,7.50819 0 0 0 7.5,7.5 h 54 a 7.5082,7.5082 0 0 0 7.5,-7.5 v -32 a 7.5082,7.5082 0 0 0 -7.5,-7.5 z"
     fill="#e6e6e6"
     id="path24441"
     style="fill:#d1d1d1;fill-opacity:1" />
  <path
     d="m 86.5,236.08354 h -54 a 8.51012,8.51012 0 0 1 -8.5,-8.5 v -32 a 8.51013,8.51013 0 0 1 8.5,-8.5 h 54 a 8.51014,8.51014 0 0 1 8.5,8.5 v 32 a 8.51013,8.51013 0 0 1 -8.5,8.5 z"
     fill="#e6e6e6"
     id="path24443"
     style="fill:#d1d1d1;fill-opacity:1" />
  <path
     d="m 190.5,236.08354 h -54 a 8.51012,8.51012 0 0 1 -8.5,-8.5 v -32 a 8.51013,8.51013 0 0 1 8.5,-8.5 h 54 a 8.51014,8.51014 0 0 1 8.5,8.5 v 32 a 8.51013,8.51013 0 0 1 -8.5,8.5 z"
     fill="#e6e6e6"
     id="path24445"
     style="fill:#d1d1d1;fill-opacity:1" />
  <path
     d="m 294.5,236.08354 h -54 a 8.51012,8.51012 0 0 1 -8.5,-8.5 v -32 a 8.51013,8.51013 0 0 1 8.5,-8.5 h 54 a 8.51014,8.51014 0 0 1 8.5,8.5 v 32 a 8.51013,8.51013 0 0 1 -8.5,8.5 z"
     fill="#e6e6e6"
     id="path24447"
     style="fill:#d1d1d1;fill-opacity:1" />
  <path
     d="m 56.5,87.083545 a 3.50424,3.50424 0 0 1 -3.5,-3.5 v -50 a 3.5,3.5 0 0 1 7,0 v 50 a 3.50425,3.50425 0 0 1 -3.5,3.5 z"
     fill="#3f3d56"
     id="path24449"
     style="fill:#000000;fill-opacity:1" />
  <path
     d="m 267.5,87.083545 a 3.50424,3.50424 0 0 1 -3.5,-3.5 v -50 a 3.5,3.5 0 0 1 7,0 v 50 a 3.50425,3.50425 0 0 1 -3.5,3.5 z"
     fill="#3f3d56"
     id="path24451"
     style="fill:#000000;fill-opacity:1" />
  <path
     id="b5e0804e-c461-433c-b77b-73087ef71cb0-57"
     data-name="Path 395"
     d="m 56.95869,160.55479 a 6.78778,6.78778 0 0 1 -4.08354,-1.35714 l -0.073,-0.0548 -15.38069,-11.76574 a 6.8350706,6.8350706 0 0 1 8.31719,-10.84883 l 9.96238,7.63962 23.54159,-30.71268 a 6.83219,6.83219 0 0 1 9.579,-1.26526 l 0.002,0.001 -0.1461,0.20287 0.15006,-0.20287 a 6.84044,6.84044 0 0 1 1.26378,9.581 l -27.69011,36.1087 a 6.83631,6.83631 0 0 1 -5.43658,2.66555 z"
     fill="#6c63ff"
     style="fill:#ac91f4;fill-opacity:1" />
  <path
     id="b3a0cc8c-ec19-4bca-9f18-6cf478ced8d1-58"
     data-name="Path 395"
     d="m 163.95869,223.55479 a 6.78778,6.78778 0 0 1 -4.08354,-1.35714 l -0.073,-0.0548 -15.38069,-11.76574 a 6.8350706,6.8350706 0 0 1 8.31719,-10.84883 l 9.96238,7.63962 23.54159,-30.71268 a 6.83219,6.83219 0 0 1 9.579,-1.26526 l 0.002,10e-4 -0.1461,0.20287 0.15006,-0.20287 a 6.84044,6.84044 0 0 1 1.26378,9.581 l -27.69011,36.1087 a 6.83631,6.83631 0 0 1 -5.43658,2.66555 z"
     fill="#6c63ff"
     style="fill:#ac91f4;fill-opacity:1" />
  <path
     id="b29a902b-cd84-4f58-97ad-17c408cf2b06-59"
     data-name="Path 395"
     d="m 264.95869,160.55479 a 6.78778,6.78778 0 0 1 -4.08354,-1.35714 l -0.073,-0.0548 -15.38069,-11.76574 a 6.8350706,6.8350706 0 0 1 8.31719,-10.84883 l 9.96238,7.63962 23.54159,-30.71268 a 6.83219,6.83219 0 0 1 9.579,-1.26526 l 0.002,0.001 -0.1461,0.20287 0.15006,-0.20287 a 6.84044,6.84044 0 0 1 1.26378,9.581 l -27.69011,36.1087 a 6.83631,6.83631 0 0 1 -5.43658,2.66555 z"
     fill="#6c63ff"
     style="fill:#ac91f4;fill-opacity:1" />
</svg>
