<?xml version="1.0" encoding="UTF-8" standalone="no"?>
<!-- Created with Inkscape (http://www.inkscape.org/) -->

<svg
   width="677.78308mm"
   height="21.999941mm"
   viewBox="0 0 677.78307 21.999941"
   version="1.1"
   id="svg9690"
   inkscape:version="1.2.2 (b0a84865, 2022-12-01)"
   sodipodi:docname="line.svg"
   xmlns:inkscape="http://www.inkscape.org/namespaces/inkscape"
   xmlns:sodipodi="http://sodipodi.sourceforge.net/DTD/sodipodi-0.dtd"
   xmlns="http://www.w3.org/2000/svg"
   xmlns:svg="http://www.w3.org/2000/svg">
  <sodipodi:namedview
     id="namedview9692"
     pagecolor="#ffffff"
     bordercolor="#000000"
     borderopacity="0.25"
     inkscape:showpageshadow="2"
     inkscape:pageopacity="0.0"
     inkscape:pagecheckerboard="0"
     inkscape:deskcolor="#d1d1d1"
     inkscape:document-units="mm"
     showgrid="false"
     inkscape:zoom="0.27019218"
     inkscape:cx="1097.3671"
     inkscape:cy="35.16016"
     inkscape:window-width="1728"
     inkscape:window-height="1051"
     inkscape:window-x="0"
     inkscape:window-y="38"
     inkscape:window-maximized="0"
     inkscape:current-layer="layer1" />
  <defs
     id="defs9687" />
  <g
     inkscape:label="Layer 1"
     inkscape:groupmode="layer"
     id="layer1"
     transform="translate(-81.70707,-155.99368)">
    <path
       d="m 120.22881,157.26101 c 5.46668,-1.078 8.39258,3.40335 13.21019,6.53393 11.98469,7.78967 16.17595,-7.53831 24.73795,-7.27049 6.58046,0.20581 10.41655,9.4132 17.82047,9.31979 7.91947,-0.0991 11.78468,-9.10569 18.27396,-9.15859 6.29691,-0.0511 10.68484,9.21397 18.09592,9.2264 7.31798,0.0126 11.50733,-9.02966 17.79421,-9.01891 6.24106,0.009 10.33159,8.47412 17.70066,8.64109 7.35904,0.16699 11.67631,-8.89406 18.46825,-8.87751 6.28449,0.0158 10.84046,8.66175 17.37891,8.85683 14.88278,-14.66625 23.34912,-1.08789 36.1732,0.0876 7.30128,0.33067 11.81428,-9.1685 18.3914,-9.13544 5.85869,0.0292 10.2681,8.44437 16.56024,8.9792 15.63052,-12.91635 20.84974,-3.06032 34.63369,-0.076 10.09052,1.72278 11.41569,-7.06712 18.5389,-8.75269 8.98998,2.71276 14.43269,8.35323 23.52022,8.58901 1.0922,1.45082 2.34767,6.51825 2.74053,8.84037 -5.47249,7.23164 -10.98463,2.05752 -16.45616,-2.34527 -10.1182,-8.1418 -13.62636,-0.50839 -21.48139,4.32178 l -0.18949,0.11403 c -4.91258,6.6017 -15.58116,-7.03821 -21.32672,-7.62434 -8.7816,-0.89607 -12.62486,9.19414 -19.06545,9.11313 -5.60853,-0.0703 -9.92677,-7.98305 -15.57064,-9.07096 -9.06896,-1.74755 -12.89551,8.71055 -20.13092,8.77583 -5.9532,0.0545 -9.99552,-8.81217 -17.69349,-8.82707 -7.66789,-0.0138 -11.61569,8.48155 -17.50207,9.12883 -6.10787,0.67209 -10.67195,-9.01806 -18.30547,-9.02632 -7.82638,-0.006 -12.50073,8.81138 -18.59046,8.62704 -7.20533,-0.21741 -10.39985,-10.09768 -19.81872,-8.27902 -13.86606,15.74613 -23.58292,-0.2061 -34.61365,-0.186 -7.59104,0.32653 -12.36325,10.0952 -18.63199,8.88329 -14.18562,-16.14932 -22.17539,-0.34262 -35.15976,0.34307 -5.38037,-0.0231 -9.92106,-7.98554 -15.81917,-9.13378 -9.48207,-1.84678 -13.11868,8.76595 -20.11488,8.78659 -14.497994,-4.39456 -20.579997,-6.03282 -22.09001,-20.38549 15.790826,12.61347 25.17009,1.41365 38.52174,0 z"
       id="path240-6-4-8"
       style="fill:#141619;fill-opacity:1;stroke-width:0.62819"
       sodipodi:nodetypes="cccccccccccccccccsccccccccccccccccccc" />
    <path
       d="m 445.45147,156.96449 c 13.7365,13.80452 27.94368,-0.40242 37.94814,-0.73066 6.58046,0.2042 10.41655,9.338 17.82047,9.24532 7.91947,-0.0984 11.78468,-9.0329 18.27396,-9.08539 6.29691,-0.051 10.68484,9.14033 18.09592,9.15263 7.31798,0.0126 11.50733,-8.95745 17.79421,-8.94681 6.24106,0.009 10.33159,8.40642 17.70066,8.57207 14.59857,-14.66607 23.40066,-0.96724 35.84716,-0.0205 7.729,0.228 11.77179,-8.89352 18.53365,-8.83688 6.45969,0.0533 11.10205,8.63026 17.63955,8.92385 7.30128,0.328 11.81428,-9.09528 18.3914,-9.06245 13.90836,15.49681 23.92276,0.54571 35.2223,-0.18124 5.89878,-0.0905 10.16117,8.02998 15.97163,9.01324 10.09052,1.70896 11.41569,-7.01068 18.5389,-8.68275 8.98385,2.69343 14.4485,8.28676 23.52022,8.52036 1.0922,1.43919 2.34767,6.46614 2.74053,8.76969 -5.47249,7.17385 -10.98463,2.04112 -16.45616,-2.3265 -10.1182,-8.07674 -13.62636,-0.50431 -21.48139,4.28726 -8.39054,6.05393 -14.47083,-6.22 -21.51621,-7.45024 -8.7816,-0.88891 -12.62486,9.12069 -19.06545,9.04034 -5.60853,-0.0698 -9.92677,-7.91928 -15.57064,-8.99848 -9.06896,-1.7336 -12.89551,8.64094 -20.13092,8.7057 -14.68294,-14.20214 -22.11643,-1.7652 -35.19556,0.29934 -6.10787,0.66671 -10.67195,-8.946 -18.30547,-8.95418 -7.82638,-0.006 -12.50073,8.74097 -18.59046,8.55807 -7.20533,-0.21567 -10.39985,-10.01697 -19.81872,-8.21283 -13.83358,15.62343 -23.6078,-0.20441 -34.61365,-0.18453 -7.59104,0.32395 -12.36325,10.01455 -18.63199,8.81231 -5.92075,-1.13578 -9.22649,-9.16901 -16.8161,-8.85987 -7.79678,0.31817 -12.69358,9.22399 -18.34366,9.20021 -5.38037,-0.0229 -9.92106,-7.92174 -15.81917,-9.0608 -9.48207,-1.83201 -13.11868,8.69587 -20.11488,8.71636 -6.7599,0.0199 -10.65757,-9.36257 -22.09001,-8.67288 0.42266,-4.16343 0.45659,-7.38626 0,-11.54966 10.46988,-2.15841 12.72456,8.06277 21.43889,8.33748 7.38,0.23373 10.79745,-7.96601 17.08285,-8.33748 z"
       id="path240-6"
       style="fill:#141619;fill-opacity:1;stroke-width:0.62567"
       sodipodi:nodetypes="cccscccccsccccccsccccccccccccccccccsc" />
  </g>
</svg>
