<?xml version="1.0" encoding="UTF-8" standalone="no"?>
<!-- Created with Inkscape (http://www.inkscape.org/) -->

<svg
   width="677.78308mm"
   height="23.000065mm"
   viewBox="0 0 677.78307 23.000064"
   version="1.1"
   id="svg9690"
   inkscape:version="1.2.2 (b0a84865, 2022-12-01)"
   sodipodi:docname="line.svg"
   xmlns:inkscape="http://www.inkscape.org/namespaces/inkscape"
   xmlns:sodipodi="http://sodipodi.sourceforge.net/DTD/sodipodi-0.dtd"
   xmlns="http://www.w3.org/2000/svg"
   xmlns:svg="http://www.w3.org/2000/svg">
  <sodipodi:namedview
     id="namedview9692"
     pagecolor="#ffffff"
     bordercolor="#000000"
     borderopacity="0.25"
     inkscape:showpageshadow="2"
     inkscape:pageopacity="0.0"
     inkscape:pagecheckerboard="0"
     inkscape:deskcolor="#d1d1d1"
     inkscape:document-units="mm"
     showgrid="false"
     inkscape:zoom="0.27019218"
     inkscape:cx="1097.3671"
     inkscape:cy="35.16016"
     inkscape:window-width="1728"
     inkscape:window-height="1051"
     inkscape:window-x="0"
     inkscape:window-y="38"
     inkscape:window-maximized="0"
     inkscape:current-layer="layer1" />
  <defs
     id="defs9687" />
  <g
     inkscape:label="Layer 1"
     inkscape:groupmode="layer"
     id="layer1"
     transform="translate(-81.70707,-155.99363)">
    <path
       d="m 120.22881,157.31863 c 5.46668,-1.12702 8.39258,3.55806 13.21019,6.83096 11.98469,8.1438 16.17595,-7.88099 24.73795,-7.601 6.58046,0.21517 10.41655,9.84112 17.82047,9.74346 7.91947,-0.10361 11.78468,-9.51964 18.27396,-9.57494 6.29691,-0.0534 10.68484,9.63285 18.09592,9.64583 7.31798,0.0131 11.50733,-9.44014 17.79421,-9.42891 6.24106,0.01 10.33159,8.85936 17.70066,9.03392 7.35904,0.17458 11.67631,-9.29838 18.46825,-9.28109 6.28449,0.0165 10.84046,9.05552 17.37891,9.25947 14.88278,-15.33299 23.34912,-1.13735 36.1732,0.0916 7.30128,0.34569 11.81428,-9.5853 18.3914,-9.55075 5.85869,0.0306 10.2681,8.82825 16.56024,9.38739 15.63052,-13.50352 20.84974,-3.19944 34.63369,-0.0795 10.09052,1.80109 11.41569,-7.3884 18.5389,-9.1506 8.98998,2.83608 14.43269,8.73297 23.52022,8.97948 1.0922,1.51676 2.34767,6.81456 2.74053,9.24224 -5.47249,7.56039 -10.98463,2.15106 -16.45616,-2.45188 -10.1182,-8.51194 -13.62636,-0.5315 -21.48139,4.51825 l -0.18949,0.11922 c -4.91258,6.90181 -15.58116,-7.35817 -21.32672,-7.97095 -8.7816,-0.93681 -12.62486,9.6121 -19.06545,9.52742 -5.60853,-0.0735 -9.92677,-8.34597 -15.57064,-9.48333 -9.06896,-1.827 -12.89551,9.10653 -20.13092,9.17477 -5.9532,0.057 -9.99552,-9.21277 -17.69349,-9.22834 -7.66789,-0.0145 -11.61569,8.86712 -17.50207,9.54383 -6.10787,0.70264 -10.67195,-9.42803 -18.30547,-9.43666 -7.82638,-0.007 -12.50073,9.21195 -18.59046,9.01922 -7.20533,-0.22729 -10.39985,-10.55672 -19.81872,-8.65538 -13.86606,16.46195 -23.58292,-0.21547 -34.61365,-0.19445 -7.59104,0.34136 -12.36325,10.55412 -18.63199,9.28711 -14.18562,-16.88346 -22.17539,-0.35818 -35.15976,0.35867 -5.38037,-0.0242 -9.92106,-8.34856 -15.81917,-9.54901 -9.48207,-1.93072 -13.11868,9.16446 -20.11488,9.18605 -14.497994,-4.59435 -20.579997,-6.30709 -22.09001,-21.31223 15.790826,13.18688 25.17009,1.47792 38.52174,0 z"
       id="path240-6-4-8"
       style="fill:#141619;fill-opacity:1;stroke-width:0.64231"
       sodipodi:nodetypes="cccccccccccccccccsccccccccccccccccccc" />
    <path
       d="m 445.45147,157.00862 c 13.7365,14.43208 27.94368,-0.4207 37.94814,-0.76388 6.58046,0.21349 10.41655,9.76251 17.82047,9.66563 7.91947,-0.10285 11.78468,-9.44353 18.27396,-9.49841 6.29691,-0.0533 10.68484,9.55584 18.09592,9.5687 7.31798,0.0131 11.50733,-9.36466 17.79421,-9.35352 6.24106,0.01 10.33159,8.78856 17.70066,8.96174 14.59857,-15.33279 23.40066,-1.01119 35.84716,-0.0215 7.729,0.23837 11.77179,-9.29781 18.53365,-9.23859 6.45969,0.0557 11.10205,9.02259 17.63955,9.32952 7.30128,0.34291 11.81428,-9.50875 18.3914,-9.47443 13.90836,16.2013 23.92276,0.57052 35.2223,-0.18947 5.89878,-0.0946 10.16117,8.39502 15.97163,9.42298 10.09052,1.78664 11.41569,-7.32938 18.5389,-9.07748 8.98385,2.81588 14.4485,8.66348 23.52022,8.90772 1.0922,1.50461 2.34767,6.76009 2.74053,9.16835 -5.47249,7.49998 -10.98463,2.1339 -16.45616,-2.43227 -10.1182,-8.4439 -13.62636,-0.52724 -21.48139,4.48216 -8.39054,6.32914 -14.47083,-6.50275 -21.51621,-7.78892 -8.7816,-0.92933 -12.62486,9.53531 -19.06545,9.4513 -5.60853,-0.0729 -9.92677,-8.27929 -15.57064,-9.40754 -9.06896,-1.81241 -12.89551,9.03376 -20.13092,9.10145 -14.68294,-14.84775 -22.11643,-1.84544 -35.19556,0.31297 -6.10787,0.697 -10.67195,-9.3527 -18.30547,-9.36125 -7.82638,-0.007 -12.50073,9.13834 -18.59046,8.94712 -7.20533,-0.22547 -10.39985,-10.47235 -19.81872,-8.58619 -13.83358,16.33367 -23.6078,-0.2137 -34.61365,-0.19291 -7.59104,0.33867 -12.36325,10.46981 -18.63199,9.21291 -5.92075,-1.18742 -9.22649,-9.58583 -16.8161,-9.26264 -7.79678,0.33264 -12.69358,9.64331 -18.34366,9.61845 -5.38037,-0.024 -9.92106,-8.28186 -15.81917,-9.4727 -9.48207,-1.91529 -13.11868,9.0912 -20.11488,9.11262 -6.7599,0.0208 -10.65757,-9.78821 -22.09001,-9.06715 0.42266,-4.35272 0.45659,-7.72205 0,-12.07472 10.46988,-2.25654 12.72456,8.4293 21.43889,8.7165 7.38,0.24435 10.79745,-8.32814 17.08285,-8.7165 z"
       id="path240-6"
       style="fill:#141619;fill-opacity:1;stroke-width:0.639734"
       sodipodi:nodetypes="cccscccccsccccccsccccccccccccccccccsc" />
  </g>
</svg>
