<?xml version="1.0" encoding="UTF-8" standalone="no"?>
<!-- Created with Inkscape (http://www.inkscape.org/) -->

<svg
   width="677.78308mm"
   height="20.999947mm"
   viewBox="0 0 677.78307 20.999946"
   version="1.1"
   id="svg9690"
   inkscape:version="1.2.2 (b0a84865, 2022-12-01)"
   sodipodi:docname="line.svg"
   xmlns:inkscape="http://www.inkscape.org/namespaces/inkscape"
   xmlns:sodipodi="http://sodipodi.sourceforge.net/DTD/sodipodi-0.dtd"
   xmlns="http://www.w3.org/2000/svg"
   xmlns:svg="http://www.w3.org/2000/svg">
  <sodipodi:namedview
     id="namedview9692"
     pagecolor="#ffffff"
     bordercolor="#000000"
     borderopacity="0.25"
     inkscape:showpageshadow="2"
     inkscape:pageopacity="0.0"
     inkscape:pagecheckerboard="0"
     inkscape:deskcolor="#d1d1d1"
     inkscape:document-units="mm"
     showgrid="false"
     inkscape:zoom="0.27019218"
     inkscape:cx="1097.3671"
     inkscape:cy="35.16016"
     inkscape:window-width="1728"
     inkscape:window-height="1051"
     inkscape:window-x="0"
     inkscape:window-y="38"
     inkscape:window-maximized="0"
     inkscape:current-layer="layer1" />
  <defs
     id="defs9687" />
  <g
     inkscape:label="Layer 1"
     inkscape:groupmode="layer"
     id="layer1"
     transform="translate(-81.70707,-155.99365)">
    <path
       d="m 120.22881,157.20341 c 5.46668,-1.02901 8.39258,3.24866 13.21019,6.23695 11.98469,7.43562 16.17595,-7.19567 24.73795,-6.94003 6.58046,0.19646 10.41655,8.98535 17.82047,8.89618 7.91947,-0.0946 11.78468,-8.69182 18.27396,-8.74231 6.29691,-0.0488 10.68484,8.79519 18.09592,8.80704 7.31798,0.012 11.50733,-8.61924 17.79421,-8.60898 6.24106,0.009 10.33159,8.08896 17.70066,8.24834 7.35904,0.1594 11.67631,-8.48981 18.46825,-8.47402 6.28449,0.0151 10.84046,8.26806 17.37891,8.45428 14.88278,-13.99965 23.34912,-1.03845 36.1732,0.0836 7.30128,0.31563 11.81428,-8.75177 18.3914,-8.72022 5.85869,0.0279 10.2681,8.06055 16.56024,8.57107 15.63052,-12.32927 20.84974,-2.92122 34.63369,-0.0726 10.09052,1.64447 11.41569,-6.74591 18.5389,-8.35487 8.98998,2.58946 14.43269,7.97356 23.52022,8.19863 1.0922,1.38487 2.34767,6.22198 2.74053,8.43855 -5.47249,6.90295 -10.98463,1.96401 -16.45616,-2.23867 -10.1182,-7.77175 -13.62636,-0.48528 -21.48139,4.12535 l -0.18949,0.10885 c -4.91258,6.30164 -15.58116,-6.71831 -21.32672,-7.2778 -8.7816,-0.85535 -12.62486,8.77624 -19.06545,8.69892 -5.60853,-0.0671 -9.92677,-7.62021 -15.57064,-8.65867 -9.06896,-1.66812 -12.89551,8.31464 -20.13092,8.37695 -5.9532,0.052 -9.99552,-8.41164 -17.69349,-8.42586 -7.66789,-0.0132 -11.61569,8.09605 -17.50207,8.71391 -6.10787,0.64154 -10.67195,-8.60818 -18.30547,-8.61606 -7.82638,-0.006 -12.50073,8.41089 -18.59046,8.23492 -7.20533,-0.20752 -10.39985,-9.63872 -19.81872,-7.90272 -13.86606,15.03044 -23.58292,-0.19673 -34.61365,-0.17754 -7.59104,0.31168 -12.36325,9.63635 -18.63199,8.47952 -14.18562,-15.4153 -22.17539,-0.32704 -35.15976,0.32748 -5.38037,-0.0221 -9.92106,-7.62258 -15.81917,-8.71864 -9.48207,-1.76283 -13.11868,8.36753 -20.11488,8.38724 -14.497994,-4.19483 -20.579997,-5.75863 -22.09001,-19.45894 15.790826,12.04016 25.17009,1.3494 38.52174,0 z"
       id="path240-6-4-8"
       style="fill:#141619;fill-opacity:1;stroke-width:0.613748"
       sodipodi:nodetypes="cccccccccccccccccsccccccccccccccccccc" />
    <path
       d="m 445.45147,156.92036 c 13.7365,13.17708 27.94368,-0.38412 37.94814,-0.69745 6.58046,0.19492 10.41655,8.91357 17.82047,8.82511 7.91947,-0.0939 11.78468,-8.62233 18.27396,-8.67244 6.29691,-0.0487 10.68484,8.72488 18.09592,8.73662 7.31798,0.012 11.50733,-8.55032 17.79421,-8.54015 6.24106,0.009 10.33159,8.02432 17.70066,8.18244 14.59857,-13.99947 23.40066,-0.92326 35.84716,-0.0196 7.729,0.21764 11.77179,-8.48929 18.53365,-8.43522 6.45969,0.0509 11.10205,8.238 17.63955,8.51824 7.30128,0.31309 11.81428,-8.68188 18.3914,-8.65054 13.90836,14.79245 23.92276,0.5209 35.2223,-0.173 5.89878,-0.0864 10.16117,7.665 15.97163,8.60357 10.09052,1.63128 11.41569,-6.69203 18.5389,-8.28811 8.98385,2.57101 14.4485,7.91011 23.52022,8.13311 1.0922,1.37377 2.34767,6.17224 2.74053,8.37108 -5.47249,6.84779 -10.98463,1.94834 -16.45616,-2.22076 -10.1182,-7.70963 -13.62636,-0.48139 -21.48139,4.0924 -8.39054,5.77876 -14.47083,-5.93728 -21.51621,-7.11161 -8.7816,-0.84851 -12.62486,8.70613 -19.06545,8.62943 -5.60853,-0.0666 -9.92677,-7.55933 -15.57064,-8.58947 -9.06896,-1.65481 -12.89551,8.24819 -20.13092,8.31 -14.68294,-13.55661 -22.11643,-1.68497 -35.19556,0.28575 -6.10787,0.63639 -10.67195,-8.5394 -18.30547,-8.54721 -7.82638,-0.006 -12.50073,8.34368 -18.59046,8.16909 -7.20533,-0.20586 -10.39985,-9.56168 -19.81872,-7.83954 -13.83358,14.91331 -23.6078,-0.19512 -34.61365,-0.17614 -7.59104,0.30922 -12.36325,9.55937 -18.63199,8.41177 -5.92075,-1.08416 -9.22649,-8.75226 -16.8161,-8.45717 -7.79678,0.30371 -12.69358,8.80474 -18.34366,8.78204 -5.38037,-0.0219 -9.92106,-7.56168 -15.81917,-8.64897 -9.48207,-1.74874 -13.11868,8.30064 -20.11488,8.3202 -6.7599,0.019 -10.65757,-8.93704 -22.09001,-8.27868 0.42266,-3.97421 0.45659,-7.05055 0,-11.02472 10.46988,-2.06031 12.72456,7.6963 21.43889,7.95853 7.38,0.2231 10.79745,-7.60394 17.08285,-7.95853 z"
       id="path240-6"
       style="fill:#141619;fill-opacity:1;stroke-width:0.611286"
       sodipodi:nodetypes="cccscccccsccccccsccccccccccccccccccsc" />
  </g>
</svg>
