<?xml version="1.0" encoding="UTF-8" standalone="no"?>
<!-- Created with Inkscape (http://www.inkscape.org/) -->

<svg
   width="677.78308mm"
   height="22.999943mm"
   viewBox="0 0 677.78307 22.999942"
   version="1.1"
   id="svg9690"
   inkscape:version="1.2.2 (b0a84865, 2022-12-01)"
   sodipodi:docname="line.svg"
   preserveAspectRatio="none"
   xmlns:inkscape="http://www.inkscape.org/namespaces/inkscape"
   xmlns:sodipodi="http://sodipodi.sourceforge.net/DTD/sodipodi-0.dtd"
   xmlns="http://www.w3.org/2000/svg"
   xmlns:svg="http://www.w3.org/2000/svg">
  <sodipodi:namedview
     id="namedview9692"
     pagecolor="#ffffff"
     bordercolor="#000000"
     borderopacity="0.25"
     inkscape:showpageshadow="2"
     inkscape:pageopacity="0.0"
     inkscape:pagecheckerboard="0"
     inkscape:deskcolor="#d1d1d1"
     inkscape:document-units="mm"
     showgrid="false"
     inkscape:zoom="0.27019218"
     inkscape:cx="1097.3671"
     inkscape:cy="27.758021"
     inkscape:window-width="1728"
     inkscape:window-height="1051"
     inkscape:window-x="0"
     inkscape:window-y="38"
     inkscape:window-maximized="0"
     inkscape:current-layer="layer1" />
  <defs
     id="defs9687" />
  <g
     inkscape:label="Layer 1"
     inkscape:groupmode="layer"
     id="layer1"
     transform="translate(-81.70707,-155.99359)">
    <path
       d="m 120.22881,157.31862 c 5.46668,-1.12704 8.39258,3.55807 13.21019,6.83098 11.98469,8.14384 16.17595,-7.88102 24.73795,-7.60102 6.58046,0.21516 10.41655,9.84114 17.82047,9.74349 7.91947,-0.1036 11.78468,-9.51968 18.27396,-9.57497 6.29691,-0.0533 10.68484,9.63289 18.09592,9.64586 7.31798,0.0138 11.50733,-9.44017 17.79421,-9.42895 6.24106,0.0104 10.33159,8.85939 17.70066,9.03396 7.35904,0.17457 11.67631,-9.29841 18.46825,-9.28113 6.28449,0.0164 10.84046,9.05557 17.37891,9.25951 14.88278,-15.33304 23.34912,-1.13735 36.1732,0.0915 7.30128,0.3457 11.81428,-9.58535 18.3914,-9.55077 5.85869,0.0307 10.2681,8.82827 16.56024,9.38741 15.63052,-13.50359 20.84974,-3.19944 34.63369,-0.0795 10.09052,1.80107 11.41569,-7.38844 18.5389,-9.15066 8.98998,2.8361 14.43269,8.73301 23.52022,8.97953 1.0922,1.51675 2.34767,6.81457 2.74053,9.24226 -5.47249,7.56043 -10.98463,2.15107 -16.45616,-2.45188 -10.1182,-8.51198 -13.62636,-0.5315 -21.48139,4.51828 l -0.18949,0.11909 c -4.91258,6.90182 -15.58116,-7.35823 -21.32672,-7.971 -8.7816,-0.93681 -12.62486,9.61214 -19.06545,9.52746 -5.60853,-0.0735 -9.92677,-8.34599 -15.57064,-9.48338 -9.06896,-1.82698 -12.89551,9.10658 -20.13092,9.17481 -5.9532,0.0571 -9.99552,-9.21279 -17.69349,-9.22835 -7.66789,-0.0138 -11.61569,8.86713 -17.50207,9.54384 -6.10787,0.70265 -10.67195,-9.42805 -18.30547,-9.43668 -7.82638,-0.008 -12.50073,9.21197 -18.59046,9.01925 -7.20533,-0.22729 -10.39985,-10.55676 -19.81872,-8.65542 -13.86606,16.46201 -23.58292,-0.21546 -34.61365,-0.19444 -7.59104,0.34135 -12.36325,10.55416 -18.63199,9.28714 -14.18562,-16.88352 -22.17539,-0.35819 -35.15976,0.35869 -5.38037,-0.0242 -9.92106,-8.3486 -15.81917,-9.54907 -9.48207,-1.93073 -13.11868,9.16452 -20.11488,9.18608 -14.497994,-4.59435 -20.579997,-6.30711 -22.09001,-21.3123 15.790826,13.18694 25.17009,1.47793 38.52174,0 z"
       id="path240-6-4-8"
       style="fill:#893be2;fill-opacity:1;stroke-width:0.642311"
       sodipodi:nodetypes="cccccccccccccccccsccccccccccccccccccc" />
    <path
       d="m 445.45147,157.0086 c 13.7365,14.43214 27.94368,-0.42069 37.94814,-0.76387 6.58046,0.21348 10.41655,9.76255 17.82047,9.66566 7.91947,-0.10277 11.78468,-9.44356 18.27396,-9.49844 6.29691,-0.0533 10.68484,9.55586 18.09592,9.56874 7.31798,0.0138 11.50733,-9.3647 17.79421,-9.35357 6.24106,0.0105 10.33159,8.78858 17.70066,8.96176 14.59857,-15.33282 23.40066,-1.01116 35.84716,-0.0215 7.729,0.23835 11.77179,-9.29784 18.53365,-9.23863 6.45969,0.0556 11.10205,9.02263 17.63955,9.32955 7.30128,0.34291 11.81428,-9.50878 18.3914,-9.47447 13.90836,16.20137 23.92276,0.57053 35.2223,-0.18946 5.89878,-0.0945 10.16117,8.39505 15.97163,9.42302 10.09052,1.78664 11.41569,-7.32942 18.5389,-9.07753 8.98385,2.81591 14.4485,8.66353 23.52022,8.90775 1.0922,1.50464 2.34767,6.76014 2.74053,9.1684 -5.47249,7.50001 -10.98463,2.1339 -16.45616,-2.43228 -10.1182,-8.44393 -13.62636,-0.52725 -21.48139,4.48217 -8.39054,6.32916 -14.47083,-6.50276 -21.51621,-7.78895 -8.7816,-0.92934 -12.62486,9.53534 -19.06545,9.45134 -5.60853,-0.0728 -9.92677,-8.27931 -15.57064,-9.40756 -9.06896,-1.81242 -12.89551,9.03378 -20.13092,9.10149 -14.68294,-14.84782 -22.11643,-1.84547 -35.19556,0.31296 -6.10787,0.697 -10.67195,-9.35276 -18.30547,-9.36128 -7.82638,-0.008 -12.50073,9.13836 -18.59046,8.94715 -7.20533,-0.22549 -10.39985,-10.4724 -19.81872,-8.58622 -13.83358,16.33371 -23.6078,-0.21372 -34.61365,-0.19293 -7.59104,0.33869 -12.36325,10.46986 -18.63199,9.21297 -5.92075,-1.18745 -9.22649,-9.58589 -16.8161,-9.2627 -7.79678,0.33266 -12.69358,9.64335 -18.34366,9.61851 -5.38037,-0.024 -9.92106,-8.2819 -15.81917,-9.47274 -9.48207,-1.9153 -13.11868,9.09122 -20.11488,9.11265 -6.7599,0.0208 -10.65757,-9.78826 -22.09001,-9.06719 0.42266,-4.35274 0.45659,-7.72209 0,-12.07477 10.46988,-2.25653 12.72456,8.42933 21.43889,8.71653 7.38,0.24437 10.79745,-8.32817 17.08285,-8.71653 z"
       id="path240-6"
       style="fill:#893be2;fill-opacity:1;stroke-width:0.639735"
       sodipodi:nodetypes="cccscccccsccccccsccccccccccccccccccsc" />
  </g>
</svg>
