<?xml version="1.0" encoding="UTF-8" standalone="no"?>
<!-- Created with Inkscape (http://www.inkscape.org/) -->

<svg
   width="677.78308mm"
   height="18.000004mm"
   viewBox="0 0 677.78307 18.000004"
   version="1.1"
   id="svg9690"
   inkscape:version="1.2.2 (b0a84865, 2022-12-01)"
   sodipodi:docname="line.svg"
   xmlns:inkscape="http://www.inkscape.org/namespaces/inkscape"
   xmlns:sodipodi="http://sodipodi.sourceforge.net/DTD/sodipodi-0.dtd"
   xmlns="http://www.w3.org/2000/svg"
   xmlns:svg="http://www.w3.org/2000/svg">
  <sodipodi:namedview
     id="namedview9692"
     pagecolor="#ffffff"
     bordercolor="#000000"
     borderopacity="0.25"
     inkscape:showpageshadow="2"
     inkscape:pageopacity="0.0"
     inkscape:pagecheckerboard="0"
     inkscape:deskcolor="#d1d1d1"
     inkscape:document-units="mm"
     showgrid="false"
     inkscape:zoom="0.27019218"
     inkscape:cx="1097.3671"
     inkscape:cy="35.16016"
     inkscape:window-width="1728"
     inkscape:window-height="1051"
     inkscape:window-x="0"
     inkscape:window-y="38"
     inkscape:window-maximized="0"
     inkscape:current-layer="layer1" />
  <defs
     id="defs9687" />
  <g
     inkscape:label="Layer 1"
     inkscape:groupmode="layer"
     id="layer1"
     transform="translate(-81.70707,-155.99364)">
    <path
       d="m 120.22881,157.03058 c 5.46668,-0.882 8.39258,2.78456 13.21019,5.34594 11.98469,6.37337 16.17595,-6.16771 24.73795,-5.94858 6.58046,0.16839 10.41655,7.70171 17.82047,7.62528 7.91947,-0.0811 11.78468,-7.45011 18.27396,-7.49339 6.29691,-0.0418 10.68484,7.5387 18.09592,7.54887 7.31798,0.0103 11.50733,-7.3879 17.79421,-7.37911 6.24106,0.007 10.33159,6.93338 17.70066,7.06999 7.35904,0.13663 11.67631,-7.27696 18.46825,-7.26342 6.28449,0.0129 10.84046,7.08689 17.37891,7.2465 14.88278,-11.99966 23.34912,-0.89009 36.1732,0.0717 7.30128,0.27055 11.81428,-7.5015 18.3914,-7.47445 5.85869,0.0239 10.2681,6.90903 16.56024,7.34662 15.63052,-10.56792 20.84974,-2.5039 34.63369,-0.0622 10.09052,1.40955 11.41569,-5.78219 18.5389,-7.16129 8.98998,2.21953 14.43269,6.83446 23.52022,7.02737 1.0922,1.18704 2.34767,5.33312 2.74053,7.23303 -5.47249,5.9168 -10.98463,1.68343 -16.45616,-1.91885 -10.1182,-6.66148 -13.62636,-0.41596 -21.48139,3.536 l -0.18949,0.0933 c -4.91258,5.40139 -15.58116,-5.75854 -21.32672,-6.2381 -8.7816,-0.73315 -12.62486,7.52248 -19.06545,7.4562 -5.60853,-0.0575 -9.92677,-6.53159 -15.57064,-7.4217 -9.06896,-1.42981 -12.89551,7.12682 -20.13092,7.18023 -5.9532,0.0446 -9.99552,-7.20996 -17.69349,-7.22215 -7.66789,-0.0113 -11.61569,6.93945 -17.50207,7.46904 -6.10787,0.54989 -10.67195,-7.37841 -18.30547,-7.38517 -7.82638,-0.005 -12.50073,7.20931 -18.59046,7.05849 -7.20533,-0.17788 -10.39985,-8.26174 -19.81872,-6.77375 -13.86606,12.8832 -23.58292,-0.16862 -34.61365,-0.15218 -7.59104,0.26716 -12.36325,8.25971 -18.63199,7.26815 -14.18562,-13.21308 -22.17539,-0.28033 -35.15976,0.28069 -5.38037,-0.0189 -9.92106,-6.53362 -15.81917,-7.47309 -9.48207,-1.511 -13.11868,7.17214 -20.11488,7.18903 -14.497994,-3.59555 -20.579997,-4.93595 -22.09001,-16.67904 15.790826,10.32011 25.17009,1.15662 38.52174,0 z"
       id="path240-6-4-8"
       style="fill:#141619;fill-opacity:1;stroke-width:0.568219"
       sodipodi:nodetypes="cccccccccccccccccsccccccccccccccccccc" />
    <path
       d="m 445.45147,156.78797 c 13.7365,11.29461 27.94368,-0.32925 37.94814,-0.59781 6.58046,0.16707 10.41655,7.64018 17.82047,7.56435 7.91947,-0.0805 11.78468,-7.39055 18.27396,-7.4335 6.29691,-0.0417 10.68484,7.47845 18.09592,7.48852 7.31798,0.0103 11.50733,-7.32883 17.79421,-7.32012 6.24106,0.007 10.33159,6.87798 17.70066,7.01351 14.59857,-11.99951 23.40066,-0.79138 35.84716,-0.0168 7.729,0.18654 11.77179,-7.27652 18.53365,-7.23018 6.45969,0.0436 11.10205,7.06112 17.63955,7.30133 7.30128,0.26837 11.81428,-7.44159 18.3914,-7.41473 13.90836,12.67921 23.92276,0.44649 35.2223,-0.14829 5.89878,-0.074 10.16117,6.56999 15.97163,7.37447 10.09052,1.39824 11.41569,-5.73601 18.5389,-7.10407 8.98385,2.20372 14.4485,6.78008 23.52022,6.97121 1.0922,1.17752 2.34767,5.29048 2.74053,7.1752 -5.47249,5.86952 -10.98463,1.67001 -16.45616,-1.9035 -10.1182,-6.60824 -13.62636,-0.41262 -21.48139,3.50776 -8.39054,4.95322 -14.47083,-5.08909 -21.51621,-6.09565 -8.7816,-0.72729 -12.62486,7.46238 -19.06545,7.39664 -5.60853,-0.0571 -9.92677,-6.47941 -15.57064,-7.36239 -9.06896,-1.4184 -12.89551,7.06986 -20.13092,7.12284 -14.68294,-11.61993 -22.11643,-1.44425 -35.19556,0.24492 -6.10787,0.54549 -10.67195,-7.31946 -18.30547,-7.32615 -7.82638,-0.005 -12.50073,7.1517 -18.59046,7.00206 -7.20533,-0.17646 -10.39985,-8.19571 -19.81872,-6.71959 -13.83358,12.78281 -23.6078,-0.16725 -34.61365,-0.15098 -7.59104,0.26505 -12.36325,8.19372 -18.63199,7.21007 -5.92075,-0.92927 -9.22649,-7.50192 -16.8161,-7.24898 -7.79678,0.26032 -12.69358,7.5469 -18.34366,7.52744 -5.38037,-0.0187 -9.92106,-6.48142 -15.81917,-7.41338 -9.48207,-1.49892 -13.11868,7.1148 -20.11488,7.13157 -6.7599,0.0163 -10.65757,-7.66029 -22.09001,-7.096 0.42266,-3.40644 0.45659,-6.0433 0,-9.44972 10.46988,-1.76597 12.72456,6.59681 21.43889,6.82158 7.38,0.19123 10.79745,-6.51765 17.08285,-6.82158 z"
       id="path240-6"
       style="fill:#141619;fill-opacity:1;stroke-width:0.56594"
       sodipodi:nodetypes="cccscccccsccccccsccccccccccccccccccsc" />
  </g>
</svg>
