<?xml version="1.0" encoding="UTF-8" standalone="no"?>
<!-- Created with Inkscape (http://www.inkscape.org/) -->

<svg
   width="135.50179mm"
   height="26.458351mm"
   viewBox="0 0 135.50179 26.458352"
   version="1.1"
   id="svg24114"
   sodipodi:docname="logo-dark.svg"
   inkscape:version="1.2.2 (b0a84865, 2022-12-01)"
   xmlns:inkscape="http://www.inkscape.org/namespaces/inkscape"
   xmlns:sodipodi="http://sodipodi.sourceforge.net/DTD/sodipodi-0.dtd"
   xmlns="http://www.w3.org/2000/svg"
   xmlns:svg="http://www.w3.org/2000/svg">
  <sodipodi:namedview
     id="namedview24116"
     pagecolor="#ffffff"
     bordercolor="#000000"
     borderopacity="0.25"
     inkscape:showpageshadow="2"
     inkscape:pageopacity="0.0"
     inkscape:pagecheckerboard="0"
     inkscape:deskcolor="#d1d1d1"
     inkscape:document-units="mm"
     showgrid="false"
     inkscape:zoom="1"
     inkscape:cx="345.5"
     inkscape:cy="170.5"
     inkscape:window-width="1728"
     inkscape:window-height="1051"
     inkscape:window-x="0"
     inkscape:window-y="38"
     inkscape:window-maximized="0"
     inkscape:current-layer="layer1" />
  <defs
     id="defs24111" />
  <g
     inkscape:label="Layer 1"
     inkscape:groupmode="layer"
     id="layer1"
     transform="translate(-85.061785,-90.910812)">
    <g
       aria-label="Floyd"
       id="text16305"
       style="font-weight:300;font-size:35.2778px;font-family:Manrope;-inkscape-font-specification:'Manrope Light';fill:none;stroke:#000000;stroke-width:0.499999">
      <path
         d="M 85.061785,116.84 V 91.439979 h 4.797781 V 103.15221 L 99.525683,91.439979 H 105.3818 L 94.76318,103.9636 106.05208,116.84 H 99.984295 L 89.859566,105.26888 V 116.84 Z"
         style="font-weight:800;-inkscape-font-specification:'Manrope Ultra-Bold';fill:#000000;stroke:none;stroke-width:0.5"
         id="path550" />
      <path
         d="m 113.81316,117.36916 q -2.04611,0 -3.47487,-0.77611 -1.41111,-0.79375 -2.15194,-2.09903 -0.7232,-1.32292 -0.7232,-2.91042 0,-1.32291 0.4057,-2.41653 0.40569,-1.09361 1.30528,-1.92264 0.91722,-0.84666 2.4518,-1.41111 1.05834,-0.38805 2.52237,-0.68791 1.46403,-0.29987 3.31611,-0.56445 1.85209,-0.28222 4.07459,-0.61736 l -1.72862,0.9525 q 0,-1.69334 -0.81138,-2.48709 -0.81139,-0.79375 -2.7164,-0.79375 -1.05833,0 -2.20486,0.51153 -1.14653,0.51153 -1.60514,1.81681 l -4.33917,-1.37584 q 0.7232,-2.36361 2.71639,-3.845276 1.9932,-1.481668 5.43278,-1.481668 2.52237,0 4.48029,0.776112 1.95791,0.776112 2.96333,2.681112 0.56445,1.05834 0.67028,2.11667 0.10583,1.05833 0.10583,2.36361 V 116.84 h -4.19806 v -3.91584 l 0.59973,0.81139 q -1.39348,1.92264 -3.01626,2.78695 -1.60514,0.84666 -4.07458,0.84666 z m 1.02305,-3.77472 q 1.32292,0 2.22251,-0.45861 0.91722,-0.47625 1.44639,-1.07598 0.5468,-0.59972 0.74083,-1.00541 0.37042,-0.77611 0.42333,-1.79917 0.0706,-1.0407 0.0706,-1.72861 l 1.41111,0.35277 q -2.13431,0.35278 -3.45722,0.59973 -1.32292,0.2293 -2.13431,0.42333 -0.81139,0.19403 -1.42875,0.42333 -0.70556,0.28223 -1.14653,0.61737 -0.42333,0.3175 -0.635,0.70555 -0.19403,0.38806 -0.19403,0.86431 0,0.65264 0.3175,1.12889 0.33514,0.45861 0.93486,0.70555 0.59973,0.24695 1.42875,0.24695 z"
         style="font-weight:800;-inkscape-font-specification:'Manrope Ultra-Bold';fill:#000000;stroke:none;stroke-width:0.5"
         id="path552" />
      <path
         d="M 129.44117,116.84 V 90.910812 h 4.79778 V 116.84 Z"
         style="font-weight:800;-inkscape-font-specification:'Manrope Ultra-Bold';fill:#000000;stroke:none;stroke-width:0.5"
         id="path554" />
      <path
         d="m 148.38533,117.36916 q -2.92806,0 -5.1682,-1.25236 -2.2225,-1.27 -3.4925,-3.47486 -1.25236,-2.2225 -1.25236,-5.08001 0,-3.12208 1.23472,-5.43278 1.23472,-2.310693 3.40431,-3.580694 2.16958,-1.28764 4.99181,-1.28764 2.99861,0 5.09764,1.411113 2.09903,1.411111 3.10444,3.968751 1.00542,2.55764 0.70556,6.01487 h -4.74486 v -1.76389 q 0,-2.91042 -0.93487,-4.18042 -0.91722,-1.28764 -3.01625,-1.28764 -2.45181,0 -3.61597,1.4993 -1.14653,1.48167 -1.14653,4.39209 0,2.66347 1.14653,4.1275 1.16416,1.44639 3.40431,1.44639 1.41111,0 2.41652,-0.61736 1.00542,-0.61736 1.53459,-1.78153 l 4.79778,1.37584 q -1.07597,2.61055 -3.40431,4.05694 -2.31069,1.44639 -5.06236,1.44639 z m -6.31473,-8.71361 v -3.56306 h 12.62945 v 3.56306 z"
         style="font-weight:800;-inkscape-font-specification:'Manrope Ultra-Bold';fill:#000000;stroke:none;stroke-width:0.5"
         id="path556" />
      <path
         d="m 173.43251,116.84 v -8.99584 q 0,-0.65264 -0.0705,-1.65806 -0.0706,-1.02306 -0.44098,-2.04611 -0.37041,-1.02306 -1.21708,-1.71098 -0.82903,-0.68791 -2.36361,-0.68791 -0.61736,0 -1.32292,0.19403 -0.70556,0.19402 -1.32292,0.75847 -0.61736,0.5468 -1.02305,1.62278 -0.38806,1.07597 -0.38806,2.8575 l -2.75167,-1.30528 q 0,-2.25778 0.91722,-4.23334 0.91723,-1.975553 2.75167,-3.192637 1.85209,-1.217084 4.65667,-1.217084 2.24014,0 3.65125,0.758472 1.41112,0.758473 2.18723,1.922641 0.79375,1.164168 1.12889,2.434168 0.33514,1.25236 0.40569,2.29306 0.0706,1.04069 0.0706,1.51694 V 116.84 Z m -13.01751,0 V 97.789984 h 4.26862 v 6.314726 h 0.59972 V 116.84 Z"
         style="font-weight:800;-inkscape-font-specification:'Manrope Ultra-Bold';fill:#000000;stroke:none;stroke-width:0.5"
         id="path558" />
      <path
         d="m 190.26,117.36916 q -2.62819,0 -4.60375,-1.32291 -1.97556,-1.32292 -3.08681,-3.59834 -1.09361,-2.27542 -1.09361,-5.13292 0,-2.91042 1.11125,-5.1682 1.12889,-2.275416 3.15737,-3.580695 2.02847,-1.305279 4.7625,-1.305279 2.71639,0 4.56847,1.322918 1.85209,1.322918 2.80459,3.598336 0.9525,2.27542 0.9525,5.13292 0,2.8575 -0.97014,5.13292 -0.9525,2.27542 -2.8575,3.59834 -1.905,1.32291 -4.74487,1.32291 z m 0.77612,-4.26861 q 1.60514,0 2.55764,-0.7232 0.97014,-0.72319 1.39347,-2.02847 0.42333,-1.30528 0.42333,-3.03389 0,-1.72861 -0.42333,-3.03389 -0.42333,-1.30528 -1.3582,-2.02847 -0.91722,-0.7232 -2.41652,-0.7232 -1.60514,0 -2.64584,0.79375 -1.02306,0.77611 -1.51695,2.09903 -0.49388,1.30528 -0.49388,2.89278 0,1.60514 0.47625,2.92806 0.47625,1.30528 1.46402,2.08139 0.98778,0.77611 2.54001,0.77611 z m 4.37444,3.73945 v -13.05279 h -0.59972 V 91.439979 h 4.83306 V 116.84 Z"
         style="font-weight:800;-inkscape-font-specification:'Manrope Ultra-Bold';fill:#000000;stroke:none;stroke-width:0.5"
         id="path560" />
      <path
         d="m 209.8744,117.36916 q -2.04611,0 -3.47487,-0.77611 -1.41111,-0.79375 -2.15194,-2.09903 -0.7232,-1.32292 -0.7232,-2.91042 0,-1.32291 0.4057,-2.41653 0.40569,-1.09361 1.30528,-1.92264 0.91722,-0.84666 2.4518,-1.41111 1.05834,-0.38805 2.52237,-0.68791 1.46403,-0.29987 3.31611,-0.56445 1.85208,-0.28222 4.07459,-0.61736 l -1.72862,0.9525 q 0,-1.69334 -0.81139,-2.48709 -0.81139,-0.79375 -2.71639,-0.79375 -1.05833,0 -2.20486,0.51153 -1.14653,0.51153 -1.60514,1.81681 l -4.33917,-1.37584 q 0.7232,-2.36361 2.71639,-3.845276 1.9932,-1.481668 5.43278,-1.481668 2.52237,0 4.48028,0.776112 1.95792,0.776112 2.96334,2.681112 0.56444,1.05834 0.67028,2.11667 0.10583,1.05833 0.10583,2.36361 V 116.84 h -4.19806 v -3.91584 l 0.59973,0.81139 q -1.39348,1.92264 -3.01626,2.78695 -1.60514,0.84666 -4.07458,0.84666 z m 1.02305,-3.77472 q 1.32292,0 2.22251,-0.45861 0.91722,-0.47625 1.44639,-1.07598 0.5468,-0.59972 0.74083,-1.00541 0.37042,-0.77611 0.42333,-1.79917 0.0706,-1.0407 0.0706,-1.72861 l 1.41111,0.35277 q -2.13431,0.35278 -3.45722,0.59973 -1.32292,0.2293 -2.13431,0.42333 -0.81139,0.19403 -1.42875,0.42333 -0.70556,0.28223 -1.14653,0.61737 -0.42333,0.3175 -0.635,0.70555 -0.19403,0.38806 -0.19403,0.86431 0,0.65264 0.3175,1.12889 0.33514,0.45861 0.93486,0.70555 0.59973,0.24695 1.42875,0.24695 z"
         style="font-weight:800;-inkscape-font-specification:'Manrope Ultra-Bold';fill:#000000;stroke:none;stroke-width:0.5"
         id="path562" />
    </g>
  </g>
</svg>
