<?xml version="1.0" encoding="UTF-8" standalone="no"?>
<!-- Created with Inkscape (http://www.inkscape.org/) -->

<svg
   width="73.153206mm"
   height="19.000057mm"
   viewBox="0 0 73.153207 19.000058"
   version="1.1"
   id="svg24114"
   sodipodi:docname="logo-light.svg"
   inkscape:version="1.2.2 (b0a84865, 2022-12-01)"
   xmlns:inkscape="http://www.inkscape.org/namespaces/inkscape"
   xmlns:sodipodi="http://sodipodi.sourceforge.net/DTD/sodipodi-0.dtd"
   xmlns="http://www.w3.org/2000/svg"
   xmlns:svg="http://www.w3.org/2000/svg">
  <sodipodi:namedview
     id="namedview24116"
     pagecolor="#ffffff"
     bordercolor="#000000"
     borderopacity="0.25"
     inkscape:showpageshadow="2"
     inkscape:pageopacity="0.0"
     inkscape:pagecheckerboard="0"
     inkscape:deskcolor="#d1d1d1"
     inkscape:document-units="mm"
     showgrid="false"
     inkscape:zoom="1"
     inkscape:cx="95.5"
     inkscape:cy="86.5"
     inkscape:window-width="1728"
     inkscape:window-height="1051"
     inkscape:window-x="0"
     inkscape:window-y="38"
     inkscape:window-maximized="0"
     inkscape:current-layer="layer1" />
  <defs
     id="defs24111" />
  <g
     inkscape:label="Layer 1"
     inkscape:groupmode="layer"
     id="layer1"
     transform="translate(-8.6815605,-22.549488)">
    <g
       aria-label="FLOYD"
       id="text4107"
       style="font-weight:600;font-size:15.1694px;font-family:Geist;-inkscape-font-specification:'Geist Semi-Bold';fill:#ffffff;stroke-width:0.499999"
       transform="translate(-68.781705,-73.395737)">
      <path
         d="m 101.87729,100.13598 h 7.70605 v 1.95685 h -5.36997 v 2.35126 h 4.01989 v 1.85067 h -4.01989 v 4.4598 h -2.33608 z"
         style="-inkscape-font-specification:'Albert Sans Ultra-Bold';fill:#ffffff;stroke-width:0.5"
         id="path4121" />
      <path
         d="m 113.26948,100.13598 v 8.66173 h 4.67217 v 1.95685 h -7.00826 v -10.61858 z"
         style="-inkscape-font-specification:'Albert Sans Ultra-Bold';fill:#ffffff;stroke-width:0.5"
         id="path4123" />
      <path
         d="m 123.61497,110.86075 q -1.1377,0 -2.12371,-0.39441 -0.98602,-0.3944 -1.72932,-1.10736 -0.7433,-0.72813 -1.16804,-1.71414 -0.42474,-1.00119 -0.42474,-2.19957 0,-1.19838 0.42474,-2.18439 0.42474,-1.00118 1.16804,-1.71414 0.7433,-0.72813 1.72932,-1.12254 0.98601,-0.3944 2.12371,-0.3944 1.12254,0 2.10855,0.3944 1.00118,0.39441 1.72931,1.12254 0.7433,0.71296 1.16804,1.71414 0.42475,0.98601 0.42475,2.18439 0,1.19838 -0.42475,2.19957 -0.42474,0.98601 -1.16804,1.71414 -0.7433,0.71296 -1.72931,1.10736 -0.98601,0.39441 -2.10855,0.39441 z m 0,-2.00236 q 0.895,0 1.57762,-0.42475 0.69779,-0.43991 1.07703,-1.21355 0.3944,-0.77364 0.3944,-1.77482 0,-1.01635 -0.3944,-1.77482 -0.37924,-0.77364 -1.07703,-1.19838 -0.68262,-0.43991 -1.57762,-0.43991 -0.92533,0 -1.60795,0.43991 -0.68263,0.42474 -1.07703,1.19838 -0.37924,0.75847 -0.37924,1.77482 0,1.00118 0.37924,1.77482 0.3944,0.77364 1.07703,1.21355 0.68262,0.42475 1.60795,0.42475 z"
         style="-inkscape-font-specification:'Albert Sans Ultra-Bold';fill:#ffffff;stroke-width:0.5"
         id="path4125" />
      <path
         d="m 136.96402,100.13598 h 2.66981 l -4.00472,7.00827 v 3.61031 h -2.35126 v -3.59515 l -4.00472,-7.02343 h 2.66981 l 2.51812,4.65701 z"
         style="-inkscape-font-specification:'Albert Sans Ultra-Bold';fill:#ffffff;stroke-width:0.5"
         id="path4127" />
      <path
         d="m 145.01896,100.13598 q 1.69897,0 2.94286,0.66746 1.25906,0.65228 1.95686,1.86583 0.69779,1.19838 0.69779,2.79117 0,1.59279 -0.69779,2.79117 -0.6978,1.18321 -1.95686,1.85067 -1.24389,0.65228 -2.94286,0.65228 h -4.14125 v -10.61858 z m -0.12136,8.66173 q 1.59279,0 2.45745,-0.89499 0.87982,-0.895 0.87982,-2.44228 0,-1.56245 -0.87982,-2.45744 -0.86466,-0.91017 -2.45745,-0.91017 h -1.6838 v 6.70488 z"
         style="-inkscape-font-specification:'Albert Sans Ultra-Bold';fill:#ffffff;stroke-width:0.5"
         id="path4129" />
    </g>
    <g
       id="g4553"
       style="stroke:none;stroke-opacity:1;fill:#ffffff"
       transform="matrix(0.95001613,0,0,0.94998312,-70.439676,-69.683458)">
      <path
         d="m 96.927525,97.815113 q 0.240012,0.117808 0.474567,0.246356 c -0.227221,0.04538 -0.463482,0.11922 -0.691904,0.140371 -0.148724,0.01379 -0.298766,-0.0012 -0.446502,-0.01067 -0.05651,-0.03643 -0.296829,-0.361944 -0.370032,-0.444424 0.09352,-0.0063 0.188622,-0.01432 0.27959,0.0085 0.10152,0.02557 0.194322,0.07258 0.299389,0.08663 0.151154,0.02021 0.303264,-0.01307 0.454891,-0.02685 z"
         id="path3456"
         style="fill:#ffffff;stroke:none;stroke-width:0.0259505;stroke-opacity:1" />
      <path
         d="m 90.992554,97.391544 c 0.0079,0.0085 0.0036,0.0025 0.0092,0.02044 -0.115452,0.154311 -0.261913,0.292304 -0.384971,0.4419 -0.154273,-0.01173 -0.300614,-0.06635 -0.457629,-0.06411 -0.368613,0.0053 -0.473322,0.212884 -0.880037,0.04043 l -0.0085,-0.0097 0.0059,-0.0172 c 0.238518,-0.152898 0.686497,-0.382393 0.962305,-0.38524 0.08841,-9.2e-4 0.178266,0.02051 0.265426,0.03236 0.184171,0.02507 0.30936,-0.01759 0.488288,-0.05892 z"
         id="path3458"
         style="fill:#ffffff;stroke:none;stroke-width:0.0259505;stroke-opacity:1" />
      <path
         d="m 98.231913,98.47299 c 0.111866,0.05392 0.218622,0.127528 0.323723,0.194002 -0.259735,0.06535 -0.510924,0.179811 -0.777049,0.209307 -0.131493,0.01457 -0.257479,0.0028 -0.387328,-0.01053 -0.27458,-0.02803 -0.44464,-2.66e-4 -0.707409,0.09573 -0.01897,0.0065 -0.03519,0.01469 -0.05511,0.01093 -0.0036,-6.8e-4 -0.135614,-0.293879 -0.152362,-0.327327 0.215402,-0.02799 0.421996,-0.119234 0.63595,-0.153543 0.228575,-0.03663 0.454899,0.02644 0.683137,0.02363 0.147345,-0.0017 0.286316,-0.04934 0.436438,-0.04225 z"
         id="path3482"
         style="fill:#ffffff;stroke:none;stroke-width:0.0259505;stroke-opacity:1" />
      <path
         d="m 90.326477,98.218652 c 0.01788,0.0081 0.02401,0.01213 0.03865,0.02668 -0.0076,0.09317 -0.122172,0.249092 -0.168006,0.332536 -0.241021,-0.02448 -0.443632,0.106886 -0.678114,0.122381 -0.215506,0.01425 -0.457928,-0.104954 -0.69022,-0.104033 -0.392025,0.0016 -0.458822,0.207804 -0.943973,0.103286 -0.01883,-0.0079 -0.03197,-0.01432 -0.04693,-0.02848 0.01941,-0.05596 0.334088,-0.242351 0.403443,-0.280511 0.13811,-0.07596 0.3002,-0.158885 0.454701,-0.178755 0.257214,-0.0331 0.512296,0.08927 0.77023,0.09295 0.308784,0.0044 0.547492,-0.18423 0.860218,-0.08607 z"
         id="path3484"
         style="fill:#ffffff;stroke:none;stroke-width:0.0259505;stroke-opacity:1" />
      <path
         d="m 99.193172,99.051585 c 0.03144,0.01253 0.365846,0.294397 0.408438,0.336077 -0.145279,0.01716 -0.289123,0.06122 -0.435158,0.06464 -0.173618,0.004 -0.336676,-0.04283 -0.512478,-0.01463 -0.259878,0.04172 -0.507031,0.172784 -0.767301,0.194728 -0.303012,0.02553 -0.581358,-0.07749 -0.888715,-0.006 -0.08033,0.01853 -0.159682,0.05003 -0.238046,0.07726 -0.02159,-0.112234 -0.02899,-0.229577 -0.04095,-0.343747 0.277961,-0.129008 0.517279,-0.138626 0.810158,-0.10446 0.126053,0.01469 0.246167,0.02735 0.374088,0.012 0.210535,-0.02519 0.410014,-0.134568 0.616896,-0.184058 0.230997,-0.05526 0.442427,-0.02509 0.67306,-0.03181 z"
         id="path3486"
         style="fill:#ffffff;stroke:none;stroke-width:0.0259505;stroke-opacity:1" />
      <path
         d="m 90.022125,98.981974 c 0.02115,0.05314 -0.03993,0.161754 -0.05865,0.216776 -0.02291,0.06726 -0.01173,0.150623 -0.03521,0.214073 -0.0085,0.02313 -0.157298,0.03198 -0.187839,0.03852 -0.111533,0.02393 -0.220706,0.06519 -0.334719,0.07062 -0.248406,0.01187 -0.474882,-0.115754 -0.724501,-0.101553 -0.239752,0.01367 -0.448754,0.168984 -0.691723,0.1688 -0.419294,-3.33e-4 -0.614258,-0.208261 -1.060738,-0.05202 l -0.09169,0.02932 c 0.10768,-0.11766 0.346371,-0.424837 0.484339,-0.472436 0.120293,-0.04148 0.374302,0.0552 0.506288,0.07531 0.220759,0.03361 0.386142,-0.0027 0.599252,-0.07643 0.08577,-0.02969 0.169315,-0.06003 0.259387,-0.06759 0.270769,-0.02272 0.521752,0.126862 0.792989,0.107127 0.188064,-0.01365 0.348656,-0.107993 0.529937,-0.147874 0.0043,-9.2e-4 0.0085,-0.0017 0.01293,-0.0027 z"
         id="path3488"
         style="fill:#ffffff;stroke:none;stroke-width:0.0259505;stroke-opacity:1" />
      <path
         d="m 100.13122,99.756349 c 0.119,0.0701 0.26938,0.253961 0.36813,0.356901 -0.15644,-0.0198 -0.32281,-0.01 -0.47939,0.0196 -0.206163,0.0388 -0.409701,0.12173 -0.619844,0.12509 -0.230948,0.004 -0.455417,-0.0691 -0.687726,-0.0398 -0.261051,0.0328 -0.505396,0.18046 -0.767335,0.19703 -0.344996,0.0218 -0.584979,-0.0855 -0.96019,-0.006 -0.07972,0.0188 -0.160146,0.052 -0.237962,0.0792 0.01692,-0.11979 0.02643,-0.24161 0.03933,-0.36183 0.102693,-0.0613 0.225967,-0.10561 0.34224,-0.12061 0.243962,-0.0314 0.487038,0.0496 0.733041,0.0381 0.301976,-0.0141 0.569027,-0.173579 0.86379,-0.205129 0.236702,-0.02533 0.459155,0.06539 0.696224,0.04651 0.216473,-0.01723 0.514916,-0.166095 0.709692,-0.129142 z"
         id="path3490"
         style="fill:#ffffff;stroke:none;stroke-width:0.0259505;stroke-opacity:1" />
      <path
         d="m 89.835499,99.85152 c 0.04935,0.07164 -0.0077,0.29006 -0.02236,0.37866 -0.181692,0.0293 -0.352229,0.10957 -0.538222,0.10715 -0.233144,-0.003 -0.447491,-0.0982 -0.684819,-0.0794 -0.246517,0.0196 -0.476773,0.14423 -0.727741,0.13943 -0.24737,-0.005 -0.475877,-0.12392 -0.726937,-0.11237 -0.338523,0.0156 -0.507074,0.18851 -0.893315,0.14746 -0.04932,-0.008 -0.09745,-0.0198 -0.145903,-0.0312 0.06247,-0.12366 0.159119,-0.27315 0.267403,-0.35826 0.09856,-0.0107 0.189093,-0.0105 0.287291,-0.0347 0.176226,-0.04323 0.350444,-0.124159 0.532366,-0.128226 0.246874,-0.0055 0.459549,0.127066 0.701371,0.136186 0.247228,0.009 0.47018,-0.149705 0.716302,-0.165162 0.24611,-0.01543 0.461879,0.100726 0.701617,0.10506 0.172591,0.0031 0.362628,-0.06647 0.53295,-0.10462 z"
         id="path3492"
         style="fill:#ffffff;stroke:none;stroke-width:0.0259505;stroke-opacity:1" />
      <path
         d="m 100.88602,100.53725 c 0.11753,0.0714 0.2116,0.21809 0.28549,0.3328 -0.34631,0.0915 -0.63156,-0.007 -0.96416,0.005 -0.276649,0.0107 -0.538007,0.14116 -0.812595,0.16521 -0.230462,0.0203 -0.453873,-0.0585 -0.684061,-0.034 -0.273469,0.0291 -0.532129,0.16812 -0.802878,0.18492 -0.444269,0.0276 -0.615985,-0.14258 -1.117333,0.0331 l -0.243177,0.0975 c 0.05039,-0.12881 0.09001,-0.25791 0.12128,-0.3924 0.135109,-0.0545 0.273735,-0.1192 0.415652,-0.14673 0.210029,-0.0408 0.401189,0.0131 0.606646,0.033 q 0.08484,0.007 0.170316,0.005 0.08551,-0.002 0.170599,-0.0144 c 0.261022,-0.0368 0.49637,-0.1798 0.764348,-0.19006 0.206589,-0.008 0.397378,0.0827 0.60697,0.0571 0.264114,-0.0324 0.51098,-0.17309 0.775943,-0.18629 0.24533,-0.0123 0.45031,0.0806 0.70696,0.0499 z"
         id="path3494"
         style="fill:#ffffff;stroke:none;stroke-width:0.0259505;stroke-opacity:1" />
      <path
         d="m 89.869107,100.63598 c 0.03177,0.19546 0.01681,0.23979 0.10732,0.43121 -0.245955,-0.0948 -0.531945,0.0985 -0.787592,0.10081 -0.25994,0.003 -0.504054,-0.0991 -0.76823,-0.0852 -0.263152,0.0139 -0.497679,0.16615 -0.76846,0.15345 -0.253636,-0.012 -0.478296,-0.14562 -0.734809,-0.14081 -0.121972,0.003 -0.242536,0.0444 -0.359495,0.0803 -0.3567,0.10934 -0.496933,0.0596 -0.848058,-0.0139 -0.06784,-0.0107 -0.147846,-0.0148 -0.210657,-0.0412 l -0.0032,-0.0169 c 0.04819,-0.11867 0.175298,-0.23661 0.264949,-0.32428 0.321745,0.0825 0.503203,0.10603 0.826937,-0.0128 0.133847,-0.0491 0.262461,-0.087 0.403813,-0.0916 0.261181,-0.009 0.495589,0.14278 0.756579,0.15267 0.245755,0.009 0.452961,-0.1418 0.691457,-0.16177 0.257412,-0.0216 0.48471,0.11502 0.73568,0.12099 0.236059,0.006 0.460064,-0.11699 0.693771,-0.15078 z"
         id="path3496"
         style="fill:#ffffff;stroke:none;stroke-width:0.0259505;stroke-opacity:1" />
      <path
         d="m 101.49975,101.25818 c 0.0869,0.0865 0.14817,0.22204 0.21464,0.32675 -0.24837,0.0411 -0.49478,0.13382 -0.74601,0.13508 -0.25075,0.001 -0.5028,-0.0804 -0.75271,-0.0516 -0.283544,0.0327 -0.555538,0.18217 -0.839237,0.19173 -0.2457,0.008 -0.483524,-0.0852 -0.728619,-0.0676 -0.248187,0.0177 -0.473464,0.14697 -0.717079,0.18289 -0.266142,0.0392 -0.517556,-0.0683 -0.782564,-0.0519 -0.235434,0.0145 -0.451868,0.14021 -0.689508,0.16005 -0.094,0.001 -0.17803,-0.0179 -0.267386,-0.0425 l 0.164042,-0.27201 c 0.276016,-0.012 0.51705,-0.20693 0.798558,-0.22996 0.224991,-0.0184 0.431417,0.0668 0.653651,0.0655 0.296667,-10e-4 0.567039,-0.15234 0.858896,-0.17434 0.249821,-0.0188 0.487433,0.078 0.738648,0.0568 0.272016,-0.0229 0.51817,-0.18193 0.790218,-0.20059 0.24229,-0.0167 0.46435,0.0619 0.70205,0.0693 0.2019,0.007 0.40314,-0.0644 0.60241,-0.0976 z"
         id="path3498"
         style="fill:#ffffff;stroke:none;stroke-width:0.0259505;stroke-opacity:1" />
      <path
         d="m 90.072274,101.49658 c 0.01293,0.004 0.02916,0.007 0.03775,0.0177 0.05104,0.0677 0.09927,0.30049 0.176624,0.4191 -0.235949,-0.0429 -0.466708,-0.13517 -0.712509,-0.10188 -0.224013,0.0304 -0.432142,0.13982 -0.661985,0.13646 -0.254472,-0.004 -0.475366,-0.11907 -0.738204,-0.0896 -0.24416,0.0273 -0.476972,0.15845 -0.720595,0.15887 -0.306582,5.6e-4 -0.574921,-0.17315 -0.883743,-0.16355 -0.252782,0.008 -0.471739,0.14294 -0.717534,0.16684 -0.224961,0.0219 -0.435454,-0.0595 -0.65443,-0.0857 l -0.01588,-0.001 c -0.104133,-0.005 -0.204125,0.024 -0.305511,0.0491 0.05937,-0.13574 0.132706,-0.32084 0.262843,-0.39948 0.215133,-0.13 0.532729,0.0588 0.798854,0.0203 0.236385,-0.0343 0.452176,-0.15406 0.693711,-0.16621 0.311242,-0.0157 0.562583,0.18595 0.868481,0.18579 0.256477,-1.6e-4 0.491336,-0.15209 0.745051,-0.17848 0.241663,-0.0251 0.449261,0.11254 0.68641,0.11787 0.28924,0.007 0.517405,-0.16267 0.78776,-0.15495 0.121573,0.004 0.237007,0.0384 0.352914,0.0699 z"
         id="path3500"
         style="fill:#ffffff;stroke:none;stroke-width:0.0259505;stroke-opacity:1" />
      <path
         d="m 101.98372,101.99006 c 0.062,0.0737 0.15801,0.32636 0.18688,0.42683 -0.39307,-0.0692 -0.67081,0.0825 -1.04768,0.11387 -0.28022,0.0233 -0.54345,-0.0964 -0.81882,-0.0741 -0.2695,0.0217 -0.514804,0.15316 -0.780848,0.19258 -0.291557,0.0432 -0.560109,-0.0781 -0.849645,-0.0564 -0.245059,0.0183 -0.469771,0.1516 -0.714357,0.168 -0.263436,0.0177 -0.516279,-0.09 -0.783502,-0.0581 -0.237287,0.0284 -0.44904,0.1784 -0.687555,0.19818 -0.337862,0.028 -0.479106,-0.12481 -0.874577,-0.0291 l -0.277874,0.0945 c 0.214642,-0.15152 0.373281,-0.31209 0.543788,-0.51368 0.275889,0.0564 0.580349,0.11134 0.858349,0.0137 0.177563,-0.0623 0.342996,-0.13014 0.53062,-0.14492 0.233522,-0.0184 0.455651,0.0824 0.691835,0.0653 0.241094,-0.0173 0.458746,-0.15201 0.698588,-0.17504 0.267581,-0.0257 0.517095,0.0868 0.785259,0.0669 0.281462,-0.0208 0.546133,-0.15286 0.826269,-0.18999 0.28487,-0.0377 0.55008,0.0924 0.83537,0.0775 0.14242,-0.008 0.28143,-0.0543 0.41961,-0.0916 0.15042,-0.0405 0.30411,-0.0737 0.45829,-0.0845 z"
         id="path3502"
         style="fill:#ffffff;stroke:none;stroke-width:0.0259505;stroke-opacity:1" />
      <path
         d="m 90.556488,102.23164 c 0.077,0.11307 0.150929,0.20982 0.250169,0.30239 -0.178313,0.0427 -0.34529,0.13633 -0.528686,0.15224 -0.266385,0.0231 -0.505725,-0.13175 -0.775072,-0.10681 -0.257209,0.0237 -0.492791,0.16012 -0.757402,0.15358 -0.230556,-0.005 -0.444444,-0.10534 -0.678109,-0.0888 -0.277911,0.0196 -0.52735,0.17378 -0.809645,0.16913 -0.27922,-0.004 -0.540551,-0.15609 -0.819737,-0.14257 -0.290088,0.014 -0.550576,0.18702 -0.835593,0.20636 -0.354594,0.024 -0.5352,-0.13388 -0.953631,-0.0375 -0.05399,0.0197 -0.12396,0.054 -0.180701,0.0535 -0.02787,-3.1e-4 -0.03619,-0.004 -0.05437,-0.0245 -0.001,-0.0133 -0.0019,-0.0247 3.96e-4,-0.0377 0.01655,-0.0972 0.124226,-0.28161 0.202467,-0.336 0.232237,-0.16142 0.641523,-0.0199 0.900501,-0.022 0.319649,-0.003 0.598514,-0.20276 0.916,-0.21549 0.306683,-0.012 0.580296,0.17024 0.886265,0.17082 0.246903,4.8e-4 0.470877,-0.15159 0.714307,-0.1793 0.270508,-0.0308 0.504785,0.10974 0.769471,0.11507 0.271609,0.005 0.519658,-0.17962 0.793387,-0.17281 0.171251,0.004 0.318536,0.0716 0.482752,0.10387 0.154633,0.0303 0.338653,0.032 0.477233,-0.0633 z"
         id="path3504"
         style="fill:#ffffff;stroke:none;stroke-width:0.0259505;stroke-opacity:1" />
      <path
         d="m 102.81226,110.29839 c 0.0188,0.0493 -0.16208,0.53858 -0.19014,0.61553 -0.20136,-0.008 -0.412,0.0133 -0.61438,0.0221 q -0.67883,0.0269 -1.35749,0.0705 -0.834041,0.0372 -1.667843,0.0933 c -0.294099,0.0181 -0.592399,0.028 -0.885632,0.064 l -0.01392,0.001 -0.0095,-0.012 c 0.01947,-0.0869 0.07761,-0.17347 0.110533,-0.25803 0.045,-0.11561 0.07413,-0.23627 0.105133,-0.35605 0.222228,-0.003 0.44595,-0.0223 0.668319,-0.0329 q 0.701518,-0.0307 1.40298,-0.0697 c 0.81654,-0.0436 1.63588,-0.0709 2.45188,-0.13819 z"
         id="path3506"
         style="fill:#ffffff;stroke:none;stroke-width:0.0259505;stroke-opacity:1" />
      <path
         d="m 101.71271,112.60876 0.0113,0.012 c -0.0181,0.11788 -0.24309,0.47011 -0.32264,0.57226 -0.18692,-0.0303 -0.39388,-0.008 -0.58372,10e-4 l -0.908206,0.0469 -3.632914,0.15956 -0.01924,-0.001 c 0.02277,-0.0664 0.316082,-0.30713 0.382607,-0.37517 0.07267,-0.0744 0.140308,-0.15231 0.206705,-0.23259 l 1.593392,-0.0653 c 0.456825,-0.0179 0.914047,-0.0247 1.370788,-0.0484 0.433438,-0.0224 0.865848,-0.0384 1.299278,-0.0537 0.19992,-0.007 0.40389,-0.0328 0.60265,-0.0156 z"
         id="path3508"
         style="fill:#ffffff;stroke:none;stroke-width:0.0259505;stroke-opacity:1" />
      <path
         d="m 91.031009,102.86436 c 0.125279,0.0401 0.243178,0.15651 0.350651,0.23218 0.09981,0.0703 0.200456,0.12575 0.313746,0.17028 -0.227239,-0.008 -0.466741,-0.0696 -0.69368,-0.0333 -0.283378,0.0453 -0.542409,0.19135 -0.832905,0.2059 -0.252858,0.0133 -0.486199,-0.1104 -0.742505,-0.0796 -0.232564,0.028 -0.447309,0.15711 -0.682107,0.16863 -0.275219,0.0136 -0.525093,-0.1076 -0.797775,-0.10787 -0.262182,-3.1e-4 -0.495084,0.15 -0.753669,0.18092 -0.291928,0.0349 -0.544054,-0.11628 -0.82922,-0.10681 -0.18228,0.007 -0.34273,0.0768 -0.515807,0.13228 -0.294579,0.0944 -0.548099,0.0595 -0.843382,0.0215 -0.173474,-0.0223 -0.342826,-0.005 -0.514415,0.0396 -0.09439,0.0288 -0.344621,0.15127 -0.426181,0.13161 -0.02821,-0.007 -0.02959,-0.0139 -0.04304,-0.0381 -0.0064,-0.13268 0.103907,-0.33647 0.156736,-0.46256 0.186315,0.0425 0.364913,-0.10534 0.554007,-0.11681 0.288343,-0.0176 0.554796,0.11947 0.846123,0.0723 0.241086,-0.0391 0.451035,-0.18828 0.695873,-0.20898 0.281948,-0.0239 0.54993,0.13578 0.827786,0.14927 0.292622,0.0141 0.542946,-0.17182 0.83049,-0.19312 0.27175,-0.0201 0.510935,0.13321 0.777761,0.12388 0.278477,-0.009 0.52937,-0.18036 0.806959,-0.19318 0.269892,-0.012 0.512469,0.13885 0.783134,0.0991 0.25851,-0.0379 0.453708,-0.18685 0.73142,-0.18673 z"
         id="path3510"
         style="fill:#ffffff;stroke:none;stroke-width:0.0259505;stroke-opacity:1" />
      <path
         d="m 102.36301,111.4357 0.009,0.0141 c -0.0231,0.13979 -0.19581,0.47417 -0.26694,0.6127 -0.35189,0.007 -0.70556,0.0359 -1.05767,0.0516 l -3.755053,0.19932 -0.01959,-10e-4 -0.0073,-0.012 c 0.03484,-0.0676 0.09988,-0.12361 0.147449,-0.183 0.116973,-0.14586 0.256764,-0.31869 0.338956,-0.48751 0.894568,-0.0604 1.789831,-0.0697 2.684378,-0.11387 q 0.64851,-0.0335 1.29707,-0.0588 c 0.20707,-0.009 0.42424,-0.0348 0.62989,-0.0216 z"
         id="path3512"
         style="fill:#ffffff;stroke:none;stroke-width:0.0259505;stroke-opacity:1" />
      <path
         d="m 89.534624,111.66526 c 0.06523,0.0536 0.121707,0.20104 0.168269,0.27659 0.08124,0.13174 0.167847,0.27441 0.266715,0.39161 -0.568408,0.0599 -1.142262,0.0669 -1.711533,0.0947 l -2.125493,0.11254 c -0.473912,0.0256 -0.947409,0.046 -1.421193,0.0817 -0.0095,4.8e-4 -0.01692,0.001 -0.02653,-1.9e-4 -0.03403,-0.005 -0.09083,-0.0981 -0.110586,-0.12908 -0.0406,-0.0635 -0.290519,-0.4816 -0.282425,-0.52108 0.101439,-0.0356 0.734041,-0.0576 0.882311,-0.0668 l 2.942748,-0.15473 0.897719,-0.0432 c 0.171054,-0.009 0.350841,-0.007 0.520005,-0.0423 z"
         id="path3514"
         style="fill:#ffffff;stroke:none;stroke-width:0.0259505;stroke-opacity:1" />
      <path
         d="m 89.015203,110.39781 c 0.03445,0.0453 0.07053,0.26551 0.09007,0.33139 0.03855,0.13001 0.07928,0.26814 0.136166,0.39012 -0.229631,0.0177 -0.458685,0.0232 -0.688225,0.0371 l -1.737496,0.0971 q -1.39053,0.0672 -2.78043,0.16887 c -0.122786,-0.1992 -0.18907,-0.46016 -0.260727,-0.68519 0.121266,-0.0261 0.250489,-0.0292 0.373203,-0.0376 0.294555,-0.0203 0.589127,-0.0241 0.883468,-0.0436 l 2.742014,-0.18129 c 0.413129,-0.0272 0.829962,-0.0259 1.241961,-0.0768 z"
         id="path3516"
         style="fill:#ffffff;stroke:none;stroke-width:0.0259505;stroke-opacity:1" />
      <path
         d="m 90.470985,112.83668 c 0.240004,0.27226 0.539647,0.49514 0.830684,0.70671 -0.223762,-0.0233 -0.465313,0.0107 -0.691736,0.0179 -0.493086,0.0156 -0.985186,0.028 -1.478358,0.0557 l -3.366995,0.15982 q -0.126533,0.007 -0.252768,0.003 c -0.100907,-0.16005 -0.284225,-0.35318 -0.414872,-0.49163 -0.03612,-0.0383 -0.07852,-0.0685 -0.111506,-0.11001 l 0.0032,-0.0185 c 0.05001,-0.0291 0.110839,-0.0335 0.166271,-0.0387 0.18129,-0.0172 0.364349,-0.0171 0.545911,-0.0261 l 1.048034,-0.0487 2.591295,-0.11347 c 0.255338,-0.012 0.9245,-0.0177 1.130872,-0.0951 z"
         id="path3518"
         style="fill:#ffffff;stroke:none;stroke-width:0.0259505;stroke-opacity:1" />
      <path
         d="m 88.987601,109.05263 c 0.01877,0.0479 -0.04468,0.6495 -0.05321,0.74521 q -1.122867,0.0816 -2.246055,0.14784 l -3.070786,0.20974 c -0.01452,-0.0452 -0.02212,-0.0932 -0.03139,-0.14001 -0.04401,-0.19196 -0.09876,-0.38297 -0.133881,-0.57713 0.278611,-0.0296 0.559966,-0.0341 0.839123,-0.052 l 1.600494,-0.10347 q 0.939429,-0.0632 1.878172,-0.14641 z"
         id="path3520"
         style="fill:#ffffff;stroke:none;stroke-width:0.0259505;stroke-opacity:1" />
      <path
         d="m 89.353969,107.74385 c 0.0096,0.0319 -0.07431,0.18989 -0.09024,0.2289 -0.06623,0.16221 -0.12056,0.33024 -0.177664,0.49578 -0.82472,0.0399 -1.650154,0.13281 -2.474156,0.19692 l -3.206588,0.22168 -0.03169,-0.21861 c -0.01988,-0.15223 -0.03128,-0.30493 -0.0426,-0.45839 0.271933,-0.0339 0.550944,-0.0373 0.82413,-0.0572 l 1.872702,-0.13435 2.147314,-0.17638 c 0.393101,-0.0339 0.785177,-0.0736 1.178789,-0.0984 z"
         id="path3522"
         style="fill:#ffffff;stroke:none;stroke-width:0.0259505;stroke-opacity:1" />
      <path
         d="m 103.25667,106.60967 0.009,0.012 c 0.0211,0.20441 0.0254,0.46157 0.004,0.66705 -0.10929,0.0211 -0.22812,0.0172 -0.33846,0.022 -0.20757,0.009 -0.41566,0.0173 -0.6231,0.0324 l -3.275913,0.20636 c -0.209302,0.0148 -2.103367,0.16347 -2.120394,0.15146 0.01563,-0.18688 0.01623,-0.49179 -0.06356,-0.65627 0.318328,-0.0527 0.65148,-0.0604 0.971967,-0.0827 q 0.918964,-0.0663 1.838331,-0.11067 1.799449,-0.10041 3.597939,-0.24112 z"
         id="path3524"
         style="fill:#ffffff;stroke:none;stroke-width:0.0259505;stroke-opacity:1" />
      <path
         d="m 103.24223,107.86045 c 0.002,0.001 0.004,0.003 0.005,0.004 0.0245,0.0347 -0.0229,0.5726 -0.038,0.66196 -0.17351,0.0279 -0.36208,0.0215 -0.53751,0.0315 -0.23669,0.0133 -0.47382,0.0313 -0.71049,0.0401 -0.27185,0.0107 -0.5433,0.0133 -0.81522,0.0281 l -4.279618,0.28506 -0.126333,0.0144 c 0.111826,-0.2316 0.114973,-0.47872 0.192682,-0.71807 0.172855,0.008 0.351386,-0.0136 0.524851,-0.024 l 1.024897,-0.064 2.143691,-0.12401 c 0.54497,-0.0309 1.08721,-0.0673 1.63235,-0.0849 0.32632,-0.0107 0.6589,-0.0588 0.98399,-0.0505 z"
         id="path3526"
         style="fill:#ffffff;stroke:none;stroke-width:0.0259505;stroke-opacity:1" />
      <path
         d="m 103.11363,105.3741 c 0.0537,0.21045 0.0702,0.44584 0.10006,0.66305 -0.18389,0.0367 -0.38176,0.0421 -0.56777,0.0565 q -0.49892,0.0384 -0.99803,0.0704 l -3.406581,0.26245 -1.001541,0.0727 c -0.170412,0.0133 -0.34292,0.0187 -0.512073,0.0492 l -0.03357,-0.0868 c -0.0596,-0.20492 -0.164958,-0.37319 -0.236907,-0.56981 0.208691,-0.0333 0.423938,-0.0296 0.634044,-0.0456 0.455174,-0.0345 0.909513,-0.0728 1.364956,-0.1008 0.629121,-0.0387 1.256545,-0.11281 1.885112,-0.15302 q 0.89059,-0.054 1.78058,-0.12855 c 0.32984,-0.0261 0.66325,-0.0427 0.99171,-0.0896 z"
         id="path3528"
         style="fill:#ffffff;stroke:none;stroke-width:0.0259505;stroke-opacity:1" />
      <path
         d="m 90.276337,106.43032 c -0.01187,0.0631 -0.30895,0.35356 -0.376475,0.4317 -0.08616,0.0997 -0.161829,0.20496 -0.236159,0.31399 -0.20794,-0.003 -0.411656,0.0207 -0.619118,0.0387 q -0.47155,0.0455 -0.943591,0.0792 -2.046782,0.16695 -4.094543,0.30201 c -0.129079,0.007 -0.593046,0.058 -0.686593,0.0225 -0.04439,-0.0527 -0.02616,-0.16674 -0.02429,-0.23384 -0.0024,-0.14546 0.0032,-0.28984 -0.01147,-0.43441 0.203422,-0.0484 0.434949,-0.0339 0.642277,-0.0467 l 1.442682,-0.0916 c 0.874569,-0.0557 1.747508,-0.14226 2.621591,-0.20759 l 1.615548,-0.11908 c 0.223839,-0.0179 0.446434,-0.0293 0.670112,-0.0548 z"
         id="path3530"
         style="fill:#ffffff;stroke:none;stroke-width:0.0259505;stroke-opacity:1" />
      <path
         d="m 102.84101,104.12278 c 0.0632,0.044 0.14973,0.5653 0.19086,0.67726 -0.25915,0.0385 -0.5275,0.0419 -0.78819,0.0599 -0.35773,0.0248 -0.71514,0.0599 -1.07309,0.0841 l -2.639905,0.20255 -1.672475,0.12668 c -0.277709,0.0207 -0.5824,0.0771 -0.857037,0.0447 -0.05964,-0.0743 -0.12952,-0.13826 -0.198542,-0.20287 -0.147313,-0.13629 -0.305514,-0.28406 -0.477201,-0.38669 0.592231,-0.0648 1.188363,-0.0893 1.781585,-0.1349 l 3.525675,-0.2732 c 0.73406,-0.0561 1.478,-0.0855 2.20832,-0.1974 z"
         id="path3532"
         style="fill:#ffffff;stroke:none;stroke-width:0.0259505;stroke-opacity:1" />
      <path
         d="m 98.098789,116.12735 c 0.01387,0.0212 0.01067,0.0159 0.0069,0.0391 -0.09352,0.10201 -0.535279,0.3294 -0.678783,0.39636 -0.222375,0.10374 -0.909851,0.43071 -1.094579,0.453 -0.116493,0.014 -0.241335,-0.0452 -0.355963,-0.0624 -0.293863,-0.044 -0.617751,-0.094 -0.915775,-0.0871 -0.330666,0.008 -0.661594,0.0255 -0.992346,0.0341 -0.62265,0.0164 -1.247691,0.0269 -1.870314,0.0684 q -0.301762,0.0209 -0.602351,0.0624 c -0.125239,0.0169 -0.290877,0.0707 -0.413069,0.0556 -0.0966,-0.012 -0.193566,-0.0523 -0.285568,-0.0829 -0.199922,-0.0664 -0.39776,-0.13791 -0.596475,-0.20773 -0.314921,-0.11067 -0.636151,-0.20719 -0.946672,-0.32942 l -0.0108,-0.0161 0.01413,-0.009 c 0.10752,-0.001 0.212902,-0.0135 0.320044,-0.0184 0.344851,-0.0159 0.690899,-0.0369 1.035635,-0.048 l 5.957917,-0.20387 c 0.258641,-0.008 1.256793,-0.09 1.428044,-0.0436 z"
         id="path3534"
         style="fill:#ffffff;stroke:none;stroke-width:0.0259505;stroke-opacity:1" />
      <path
         d="m 99.829022,114.89158 c -0.02207,0.0563 -0.07904,0.10934 -0.122573,0.14964 -0.103586,0.0957 -0.48601,0.46264 -0.594088,0.4864 -0.09443,0.0208 -0.210604,0.009 -0.307284,0.0136 -0.338496,0.0133 -0.676213,0.0172 -1.014578,0.0264 l -2.942238,0.10201 -4.618513,0.18204 -1.165224,0.0504 c -0.228282,0.009 -0.458709,0.024 -0.686411,0.0152 -0.09279,-0.0727 -0.20544,-0.12814 -0.307541,-0.18648 q -0.266098,-0.15558 -0.538915,-0.29875 c -0.0099,-0.0107 -0.01675,-0.0231 -0.02451,-0.0352 l 0.0089,-0.0164 c 0.141274,-0.0491 0.483558,-0.0295 0.645596,-0.0372 l 2.364363,-0.10121 q 3.164184,-0.13731 6.328112,-0.23945 l 1.956008,-0.0699 c 0.339831,-0.0133 0.678884,-0.0323 1.01881,-0.0412 z"
         id="path3536"
         style="fill:#ffffff;stroke:none;stroke-width:0.0259505;stroke-opacity:1" />
      <path
         d="m 100.94014,113.72942 0.0192,0.0165 c -0.0204,0.11094 -0.39966,0.51614 -0.50519,0.60716 -0.3915,-0.008 -0.790236,0.0225 -1.182601,0.0385 l -1.848299,0.0676 -6.985253,0.27298 -1.868224,0.0784 c -0.607359,0.0283 -1.217246,0.0637 -1.824146,0.0632 -0.177688,-0.13081 -0.337561,-0.29106 -0.512919,-0.42679 -0.04071,-0.0279 -0.08527,-0.0573 -0.121733,-0.0907 -0.01963,-0.018 -0.03225,-0.0285 -0.03343,-0.0571 0.08728,-0.0377 1.236991,-0.0681 1.41819,-0.0756 l 4.939029,-0.17512 5.655037,-0.20794 c 0.388524,-0.0152 0.777307,-0.0443 1.165872,-0.0617 q 0.842337,-0.0336 1.684477,-0.0495 z"
         id="path3538"
         style="fill:#ffffff;stroke:none;stroke-width:0.0259505;stroke-opacity:1" />
      <path
         d="m 102.46187,102.9777 c 0.048,0.04 0.18987,0.50091 0.23566,0.60491 -0.27061,0.0269 -0.53778,0.0395 -0.80814,0.058 l -1.56255,0.116 -5.768147,0.43227 c -0.654368,0.0483 -1.31014,0.0751 -1.9643,0.13001 -0.242973,0.0204 -0.486464,0.0525 -0.729315,0.0773 l -1.492305,0.14287 q -2.299027,0.21288 -4.599757,0.38209 c -0.635084,0.0491 -1.270067,0.13716 -1.905928,0.16515 -0.06696,0.005 -0.218757,0.0359 -0.268714,-0.007 -0.0095,-0.14282 0.105133,-0.45933 0.141201,-0.6231 0.152265,-0.0488 0.32587,-0.0348 0.482928,-0.0443 q 0.222761,-0.0155 0.445404,-0.0343 l 2.944856,-0.23444 9.461135,-0.74797 3.535562,-0.27132 c 0.61658,-0.0477 1.2374,-0.0735 1.85241,-0.14679 z"
         id="path3540"
         style="fill:#ffffff;stroke:#000000;stroke-width:0.026;stroke-dasharray:none;stroke-opacity:1" />
      <path
         d="m 94.43418,97.316645 q 0.033,0.01445 0.06564,0.02974 0.03264,0.01528 0.06489,0.03138 0.03224,0.01608 0.06409,0.03297 0.03183,0.01688 0.06327,0.03455 0.03143,0.01768 0.06241,0.03614 0.03097,0.01846 0.06151,0.03768 0.03053,0.01923 0.0606,0.03921 0.03004,0.01998 0.05961,0.04071 0.02955,0.02072 0.05861,0.04219 0.02907,0.02147 0.05761,0.04367 0.02853,0.02219 0.05652,0.04508 0.028,0.0229 0.05544,0.0465 0.02744,0.0236 0.05432,0.04788 0.02689,0.02429 0.05317,0.04924 0.02631,0.02496 0.05199,0.05058 0.02569,0.02562 0.05077,0.05187 0.02508,0.02625 0.04953,0.05315 0.02448,0.02691 0.04828,0.0544 0.02383,0.02751 0.04699,0.05562 0.02316,0.0281 0.04565,0.05679 0.02249,0.02869 0.04433,0.05795 0.02181,0.02925 0.04295,0.05907 0.02113,0.02981 0.04155,0.06015 0.02044,0.03035 0.04013,0.0612 0.01972,0.03087 0.03871,0.06223 0.01899,0.03136 0.03725,0.06322 0.01824,0.03184 0.03576,0.06415 0.01751,0.03234 0.03427,0.0651 0.01676,0.03276 0.03275,0.06596 0.01599,0.0332 0.0312,0.06679 0.01521,0.03361 0.02968,0.06763 0.01443,0.03402 0.02807,0.06839 0.0132,0.03371 0.02556,0.06782 0.0124,0.03409 0.02389,0.06852 0.0116,0.03446 0.02223,0.06919 0.01067,0.03478 0.02053,0.06982 0.0099,0.03505 0.01885,0.07039 0.0089,0.03532 0.01711,0.07094 0.0081,0.03559 0.01539,0.0714 0.0072,0.03583 0.01367,0.07187 0.0064,0.03603 0.01187,0.07226 0.0055,0.03624 0.01013,0.07264 0.0047,0.0364 0.0084,0.07293 0.0037,0.03654 0.0067,0.0732 0.0029,0.03666 0.0048,0.07343 0.002,0.03675 0.0031,0.0736 0.0011,0.03683 0.0013,0.07373 1.9e-4,0.0369 -4.8e-4,0.0738 -6.4e-4,0.0369 -0.0023,0.0738 -0.0016,0.0369 -0.004,0.0738 -0.0024,0.0369 -0.0057,0.0738 -0.0033,0.0369 -0.0075,0.0737 -0.0041,0.0368 -0.0093,0.0735 -0.0051,0.0367 -0.01107,0.0734 -0.006,0.0366 -0.0128,0.0731 -0.0068,0.0365 -0.01452,0.0729 -0.0077,0.0363 -0.01624,0.0725 -0.0085,0.0362 -0.01796,0.0722 -0.0093,0.036 -0.01964,0.0717 -0.01027,0.0358 -0.02136,0.0712 -0.01107,0.0356 -0.02307,0.0708 -0.01187,0.0352 -0.02472,0.0703 -0.0128,0.0349 -0.02636,0.0696 -0.01359,0.0347 -0.02801,0.0691 -0.01373,0.0329 -0.02821,0.0657 -0.01448,0.0327 -0.02972,0.0651 -0.01524,0.0323 -0.0312,0.0643 -0.01599,0.032 -0.03269,0.0636 -0.01671,0.0316 -0.03413,0.0628 -0.01741,0.0312 -0.03556,0.062 -0.01812,0.0308 -0.03696,0.0611 -0.01883,0.0304 -0.03835,0.0601 -0.01952,0.0299 -0.03971,0.0593 -0.02021,0.0293 -0.04107,0.0583 -0.02088,0.0289 -0.04239,0.0573 -0.02151,0.0284 -0.04367,0.0563 -0.02213,0.0279 -0.04493,0.0552 -0.02279,0.0273 -0.04617,0.0541 -0.0234,0.0268 -0.04739,0.0529 -0.024,0.0263 -0.04859,0.0519 -0.02457,0.0256 -0.04973,0.0505 -0.02516,0.0251 -0.05084,0.0495 -0.02572,0.0244 -0.05193,0.0481 -0.02625,0.0237 -0.05303,0.0469 -0.02677,0.0231 -0.05404,0.0456 -0.02729,0.0224 -0.05505,0.0443 -0.02776,0.0217 -0.05603,0.0428 -0.02824,0.0211 -0.05695,0.0415 -0.02871,0.0204 -0.05785,0.0401 -0.02916,0.0196 -0.05872,0.0387 -0.02957,0.0189 -0.05955,0.0372 -0.02999,0.0183 -0.06036,0.0357 -0.03037,0.0175 -0.06112,0.0341 -0.03073,0.0168 -0.06184,0.0327 -0.03109,0.016 -0.06253,0.0312 -0.03141,0.0152 -0.06317,0.0296 c -0.751533,0.3337 -1.547332,0.32448 -2.281211,0.0184 q -0.03356,-0.0145 -0.06675,-0.03 -0.0332,-0.0155 -0.06596,-0.0317 -0.03276,-0.0163 -0.06511,-0.0335 -0.03236,-0.0172 -0.06425,-0.0351 -0.03191,-0.018 -0.06336,-0.0368 -0.03143,-0.0188 -0.06239,-0.0384 -0.03096,-0.0196 -0.0614,-0.04 -0.03045,-0.0204 -0.06037,-0.0416 -0.02993,-0.0212 -0.05933,-0.0432 -0.0294,-0.022 -0.05821,-0.0447 -0.02885,-0.0227 -0.05712,-0.0461 -0.02825,-0.0235 -0.05593,-0.0477 -0.02767,-0.0243 -0.05472,-0.0492 -0.02707,-0.0249 -0.05352,-0.0505 -0.02644,-0.0256 -0.05225,-0.052 -0.02581,-0.0263 -0.05095,-0.0533 -0.02516,-0.0271 -0.04964,-0.0547 -0.02449,-0.0276 -0.04829,-0.0559 -0.02379,-0.0283 -0.04688,-0.0572 -0.02311,-0.0289 -0.04549,-0.0584 -0.0224,-0.0296 -0.04407,-0.0596 -0.02165,-0.0301 -0.04257,-0.0608 -0.02092,-0.0307 -0.04111,-0.0619 -0.02019,-0.0312 -0.0396,-0.0631 -0.0194,-0.0317 -0.03804,-0.064 -0.01864,-0.0323 -0.03649,-0.0651 -0.01785,-0.0328 -0.03491,-0.066 -0.01705,-0.0333 -0.03331,-0.0669 -0.01625,-0.0337 -0.03168,-0.0679 -0.01543,-0.0341 -0.03004,-0.0687 -0.01463,-0.0345 -0.02837,-0.0695 -0.01377,-0.0349 -0.02671,-0.0703 c -0.275292,-0.73583 -0.27554,-1.532789 0.04228,-2.277955 0.294333,-0.690134 0.88145,-1.295851 1.553818,-1.585112 q 0.03397,-0.01463 0.06825,-0.02835 0.03427,-0.01375 0.0688,-0.02663 0.03456,-0.01293 0.0694,-0.02489 0.0348,-0.012 0.06987,-0.02315 0.03505,-0.01107 0.07032,-0.02136 0.03529,-0.01027 0.07076,-0.01957 0.03547,-0.0093 0.07113,-0.0178 0.03565,-0.0084 0.07145,-0.01597 0.0358,-0.0076 0.07173,-0.01419 0.03595,-0.0067 0.072,-0.0124 0.03603,-0.0057 0.07217,-0.01053 0.03613,-0.0048 0.07235,-0.0087 0.03621,-0.0039 0.07247,-0.0068 0.03625,-0.0029 0.07252,-0.0049 0.03627,-0.002 0.07255,-0.0032 0.03628,-0.0011 0.07255,-0.0013 0.03624,-1.98e-4 0.07247,5.6e-4 0.03623,7.6e-4 0.07237,0.0024 0.03615,0.0017 0.07221,0.0043 0.03608,0.0025 0.07204,0.0061 0.03596,0.0035 0.07179,0.008 0.03583,0.0044 0.07151,0.0097 0.03568,0.0053 0.07117,0.0116 0.03549,0.0063 0.07081,0.01345 0.03532,0.0072 0.07041,0.01527 0.03509,0.0081 0.06995,0.01707 0.03485,0.0089 0.06947,0.01887 0.0346,0.0099 0.06892,0.02065 0.03432,0.0108 0.06835,0.02243 0.03403,0.0116 0.06773,0.0242 0.03369,0.01253 0.06705,0.02594 0.03336,0.0134 0.06637,0.02768 z"
         id="path3542"
         style="fill:#ffffff;stroke:none;stroke-width:0.0259505;stroke-opacity:1" />
      <path
         d="m 103.07858,109.09249 c 0.0133,0.16813 -0.0835,0.47482 -0.13573,0.64537 -0.40226,0.0449 -0.81228,0.0459 -1.21576,0.0695 l -2.398116,0.137 -0.756361,0.0447 c -0.16276,0.009 -0.408872,-0.003 -0.558617,0.0447 -0.135992,0.29775 -0.234725,0.61246 -0.384783,0.90463 -0.426419,0.83014 -1.180252,1.63402 -1.957423,2.11902 -0.927044,0.57852 -2.149103,0.73319 -3.16537,0.47537 -1.095199,-0.27784 -1.982089,-1.02742 -2.525581,-2.03377 -0.470357,-0.87088 -0.649703,-2.04965 -0.368698,-3.04111 0.260962,-0.92079 0.865641,-1.65136 1.664227,-2.13387 0.74298,-0.44889 1.681877,-0.65762 2.50139,-0.4352 0.551984,0.14981 1.032505,0.51453 1.302869,1.03344 0.287083,0.55096 0.297443,1.21397 0.11652,1.82255 -0.169842,0.57136 -0.599666,1.15553 -1.110664,1.44799 -0.257145,0.14713 -0.625383,0.24833 -0.907311,0.15923 -0.127319,-0.0403 -0.22831,-0.14515 -0.28302,-0.26864 -0.03467,-0.0783 -0.05013,-0.16713 -0.01769,-0.25181 0.08661,-0.22619 0.386974,-0.14213 0.565304,-0.14791 q 0.04141,-10e-4 0.08269,-0.007 0.04127,-0.005 0.082,-0.0148 0.04072,-0.009 0.08053,-0.0231 0.03981,-0.0136 0.07827,-0.0311 c 0.345237,-0.1612 0.591395,-0.52027 0.731117,-0.87151 0.169882,-0.42707 0.274175,-0.96518 0.100653,-1.39378 -0.157177,-0.38818 -0.490526,-0.67569 -0.867651,-0.81944 -0.588134,-0.22412 -1.277887,-0.10987 -1.851119,0.16463 -0.735062,0.35202 -1.306987,0.9493 -1.607051,1.73202 -0.300897,0.78493 -0.202471,1.71998 0.10844,2.461 0.367591,0.87606 1.06673,1.61863 1.941857,1.94265 0.93594,0.34652 1.945437,0.23403 2.859124,-0.22179 0.693889,-0.34618 1.475868,-1.18715 1.86651,-1.87238 0.119586,-0.20975 0.207434,-0.42487 0.291104,-0.65071 -0.108333,-0.009 -0.211848,-2.8e-4 -0.320092,0.0164 -0.267752,0.5769 -0.7191,1.17117 -1.193503,1.58649 -0.752032,0.65843 -1.481358,0.99195 -2.462347,0.91778 -0.784034,-0.0593 -1.703288,-0.50003 -2.197137,-1.12302 -0.480526,-0.60623 -0.749866,-1.40726 -0.658342,-2.21309 q 0.0036,-0.0333 0.008,-0.0665 0.0044,-0.0332 0.0096,-0.0664 0.0052,-0.0332 0.0112,-0.0663 0.006,-0.0331 0.0128,-0.066 0.0068,-0.0329 0.01432,-0.0657 0.0076,-0.0328 0.01592,-0.0653 0.0084,-0.0325 0.01747,-0.0649 0.0091,-0.0324 0.019,-0.0645 0.0099,-0.0321 0.02055,-0.0641 0.01067,-0.032 0.02207,-0.0636 0.01147,-0.0317 0.02356,-0.0631 0.01213,-0.0315 0.02508,-0.0625 0.01293,-0.0311 0.02656,-0.0619 0.01363,-0.0308 0.028,-0.0613 0.01437,-0.0305 0.02945,-0.0605 0.01509,-0.0301 0.03088,-0.0599 0.01581,-0.0297 0.03229,-0.0591 0.01651,-0.0293 0.03368,-0.0583 0.01719,-0.0289 0.03504,-0.0575 0.01787,-0.0285 0.03639,-0.0565 0.01853,-0.0281 0.03771,-0.0557 0.01919,-0.0276 0.039,-0.0547 0.01983,-0.0271 0.04029,-0.0537 0.02045,-0.0267 0.04151,-0.0527 0.02108,-0.0261 0.04273,-0.0517 0.02169,-0.0256 0.04395,-0.0507 0.02228,-0.0251 0.04509,-0.0495 0.02284,-0.0244 0.04625,-0.0484 0.02341,-0.0239 0.04736,-0.0472 0.02395,-0.0233 0.04841,-0.046 0.02449,-0.0227 0.04947,-0.0448 0.025,-0.022 0.05051,-0.0435 c 0.446305,-0.38208 1.051918,-0.58626 1.614732,-0.53778 0.391365,0.0337 0.782924,0.18634 1.029753,0.50922 0.184078,0.24078 0.29161,0.56188 0.248909,0.8769 -0.04076,0.30089 -0.224774,0.58825 -0.454957,0.77708 -0.358873,0.24696 -0.600412,0.17916 -0.993069,0.15121 -0.141153,-0.0107 -0.285829,0.0145 -0.397442,0.11827 -0.134422,0.12481 -0.193585,0.32177 -0.20736,0.50055 -0.01997,0.25886 0.09501,0.52232 0.255968,0.70726 0.237838,0.27324 0.604899,0.40364 0.960682,0.41252 0.468996,0.012 0.848674,-0.19409 1.195092,-0.52354 0.646379,-0.61466 1.027996,-1.52395 1.077656,-2.41092 0.03947,-0.70491 -0.131853,-1.31442 -0.590561,-1.82389 -0.457595,-0.50823 -1.030667,-0.81904 -1.714353,-0.88156 -0.565619,-0.0517 -1.209715,0.0388 -1.755786,0.22913 -0.173378,0.0604 -0.495255,0.21096 -0.654878,0.23282 -0.123093,0.0168 -0.249229,0.0157 -0.373039,0.0276 l -1.172862,0.10774 q -1.566411,0.14214 -3.133658,0.26348 l -2.073358,0.16805 c -0.3207,0.0244 -0.644414,0.0704 -0.965229,0.0668 -0.01227,-0.1868 0.04496,-0.51498 0.06696,-0.71067 0.177795,-0.0367 0.375345,-0.0267 0.555705,-0.0403 l 1.386421,-0.10428 q 2.678016,-0.21349 5.354813,-0.45682 c 0.172563,-0.0167 0.347275,-0.0341 0.518087,-0.0696 0.189265,-0.0395 0.376935,-0.10014 0.564477,-0.14934 0.400078,-0.10481 0.810192,-0.18759 1.220444,-0.19573 0.543155,-0.0107 1.131257,0.10107 1.61874,0.33183 0.715612,0.33877 1.301547,1.0024 1.555954,1.77619 0.233149,0.70918 0.222152,1.37687 0.02816,2.11113 q -0.05849,0.22894 -0.138589,0.45158 -0.08007,0.22261 -0.180937,0.43668 c -0.328478,0.6986 -0.960409,1.38167 -1.665842,1.6543 q -0.02528,0.0107 -0.05075,0.0193 -0.02548,0.009 -0.05115,0.018 -0.02568,0.009 -0.05152,0.0167 -0.02584,0.008 -0.05183,0.0153 -0.02601,0.007 -0.05215,0.014 -0.02615,0.007 -0.05243,0.012 -0.02627,0.007 -0.05265,0.012 -0.02637,0.005 -0.05287,0.009 -0.02645,0.005 -0.05303,0.008 -0.02655,0.004 -0.05316,0.007 -0.02663,0.003 -0.05328,0.005 -0.02664,0.003 -0.05336,0.004 -0.02668,0.001 -0.05336,0.003 -0.02671,0.001 -0.0534,0.001 -0.02669,4.8e-4 -0.05337,2.9e-4 -0.02665,-2e-4 -0.05329,-0.001 -0.02661,-8.4e-4 -0.0532,-0.003 -0.02657,-10e-4 -0.05305,-0.004 -0.02651,-0.003 -0.05293,-0.005 -0.02641,-0.003 -0.05271,-0.007 -0.02629,-0.004 -0.05249,-0.008 -0.02617,-0.004 -0.05221,-0.009 -0.02605,-0.005 -0.05192,-0.0107 -0.02588,-0.005 -0.05161,-0.012 -0.02571,-0.007 -0.05125,-0.0135 -0.02552,-0.007 -0.05085,-0.0148 -0.02532,-0.008 -0.05044,-0.0161 -0.02509,-0.008 -0.04997,-0.0173 -0.02487,-0.009 -0.04951,-0.0187 -0.02461,-0.009 -0.04897,-0.02 -0.02435,-0.0107 -0.04843,-0.0213 -0.02409,-0.0107 -0.04787,-0.0225 c -0.391896,-0.1895 -0.707468,-0.52383 -0.844019,-0.95456 -0.129213,-0.4076 -0.161942,-0.80877 0.03423,-1.21381 0.219609,-0.45339 0.636317,-0.72231 1.117308,-0.70214 0.184587,0.008 0.367002,0.0635 0.549627,-0.009 0.103293,-0.0409 0.194925,-0.12161 0.241058,-0.22747 0.03923,-0.0899 0.04023,-0.18626 0.0072,-0.2754 -0.06893,-0.18608 -0.247101,-0.30852 -0.418895,-0.37985 -0.318286,-0.13214 -0.701954,-0.0941 -1.020739,0.0507 -0.470221,0.21358 -0.801935,0.64577 -0.998354,1.12775 -0.231795,0.56882 -0.182436,1.11851 0.03401,1.66645 0.265571,0.6723 0.722139,1.10312 1.37316,1.36203 0.641163,0.25495 1.275646,0.29139 1.93271,-0.0151 0.670998,-0.31305 1.33845,-1.03345 1.695397,-1.69637 0.106533,-0.19781 0.182603,-0.41719 0.264653,-0.62632 0.44242,-0.0688 0.899386,-0.06 1.344225,-0.0905 l 3.382587,-0.20096 1.11287,-0.0581 c 0.2177,-0.009 0.43991,-0.003 0.6569,-0.0264 z"
         id="path3544"
         style="fill:#ffffff;stroke:none;stroke-width:0.0259505;stroke-opacity:1" />
    </g>
  </g>
</svg>
