<?xml version="1.0" encoding="UTF-8" standalone="no"?>
<!-- Created with Inkscape (http://www.inkscape.org/) -->

<svg
   width="112.87108mm"
   height="23.082251mm"
   viewBox="0 0 112.87108 23.082251"
   version="1.1"
   id="svg24114"
   sodipodi:docname="logo-light.svg"
   inkscape:version="1.2.2 (b0a84865, 2022-12-01)"
   xmlns:inkscape="http://www.inkscape.org/namespaces/inkscape"
   xmlns:sodipodi="http://sodipodi.sourceforge.net/DTD/sodipodi-0.dtd"
   xmlns="http://www.w3.org/2000/svg"
   xmlns:svg="http://www.w3.org/2000/svg">
  <sodipodi:namedview
     id="namedview24116"
     pagecolor="#ffffff"
     bordercolor="#000000"
     borderopacity="0.25"
     inkscape:showpageshadow="2"
     inkscape:pageopacity="0.0"
     inkscape:pagecheckerboard="0"
     inkscape:deskcolor="#d1d1d1"
     inkscape:document-units="mm"
     showgrid="false"
     inkscape:zoom="1"
     inkscape:cx="-144.5"
     inkscape:cy="-219.5"
     inkscape:window-width="1728"
     inkscape:window-height="1051"
     inkscape:window-x="0"
     inkscape:window-y="38"
     inkscape:window-maximized="1"
     inkscape:current-layer="layer1" />
  <defs
     id="defs24111" />
  <g
     inkscape:label="Layer 1"
     inkscape:groupmode="layer"
     id="layer1"
     transform="translate(-71.744419,-103.61083)">
    <g
       aria-label="Floyd"
       id="text24237"
       style="font-weight:600;font-size:31.75px;font-family:'Albert Sans';-inkscape-font-specification:'Albert Sans Semi-Bold';fill:#ffffff;stroke-width:0.499999">
      <path
         d="m 71.744419,104.24583 h 4.28625 v 9.17575 h 1.30175 l 7.8105,-9.17575 h 5.23875 l -9.2075,10.922 9.4615,11.303 h -5.49275 l -7.8105,-9.4615 h -1.30175 v 9.4615 h -4.28625 z"
         style="font-weight:bold;-inkscape-font-specification:'Albert Sans Bold';stroke-width:0.5;fill:#ffffff"
         id="path24326" />
      <path
         d="m 101.52585,126.47083 -0.3175,-1.93675 q -0.79375,0.98425 -1.809753,1.55575 -0.98425,0.5715 -2.667,0.5715 -1.5875,0 -2.794,-0.53975 -1.17475,-0.5715 -1.8415,-1.55575 -0.66675,-1.016 -0.66675,-2.38125 0,-2.00025 1.42875,-3.302 1.4605,-1.3335 4.3815,-1.68275 l 3.968753,-0.4445 v -1.11125 q 0,-0.66675 -0.60325,-1.23825 -0.60325,-0.5715 -1.905003,-0.5715 -1.143,0 -2.00025,0.5715 -0.8255,0.53975 -1.11125,1.651 l -3.4925,-1.27 q 0.635,-2.12725 2.413,-3.27025 1.778,-1.143 4.3815,-1.143 3.175003,0 4.762503,1.5875 1.61925,1.55575 1.61925,4.1275 v 10.38225 z m -0.3175,-6.88975 -3.429003,0.4445 q -1.04775,0.127 -1.5875,0.635 -0.53975,0.47625 -0.53975,1.17475 0,0.66675 0.53975,1.143 0.53975,0.4445 1.524,0.4445 1.11125,0 1.87325,-0.41275 0.793753,-0.41275 1.206503,-1.2065 0.41275,-0.79375 0.41275,-1.9685 z"
         style="font-weight:bold;-inkscape-font-specification:'Albert Sans Bold';stroke-width:0.5;fill:#ffffff"
         id="path24328" />
      <path
         d="m 108.98708,103.61083 h 4.064 v 22.86 h -4.064 z"
         style="font-weight:bold;-inkscape-font-specification:'Albert Sans Bold';stroke-width:0.5;fill:#ffffff"
         id="path24330" />
      <path
         d="m 124.16356,126.69308 q -2.38125,0 -4.191,-1.04775 -1.80975,-1.04775 -2.82575,-2.921 -0.98425,-1.87325 -0.98425,-4.318 0,-2.3495 0.98425,-4.15925 1.016,-1.80975 2.76225,-2.82575 1.74625,-1.04775 4.0005,-1.04775 2.286,0 4.03225,0.98425 1.74625,0.98425 2.69875,2.76225 0.98425,1.74625 0.98425,4.09575 0,0.34925 -0.0635,0.79375 -0.0317,0.41275 -0.0952,0.889 h -10.922 q 0.127,1.016 0.635,1.74625 0.53975,0.6985 1.30175,1.11125 0.79375,0.381 1.778,0.381 1.17475,0 2.0955,-0.47625 0.9525,-0.47625 1.36525,-1.30175 l 3.58775,1.0795 q -0.9525,2.032 -2.82575,3.14325 -1.87325,1.11125 -4.318,1.11125 z m 3.01625,-9.74725 q -0.0318,-0.889 -0.47625,-1.5875 -0.4445,-0.73025 -1.17475,-1.11125 -0.73025,-0.41275 -1.61925,-0.41275 -0.79375,0 -1.49225,0.41275 -0.6985,0.381 -1.2065,1.0795 -0.47625,0.6985 -0.635,1.61925 z"
         style="font-weight:bold;-inkscape-font-specification:'Albert Sans Bold';stroke-width:0.5;fill:#ffffff"
         id="path24332" />
      <path
         d="m 134.73629,110.59583 h 3.683 l 0.28575,1.61925 q 0.762,-0.85725 1.8415,-1.3335 1.11125,-0.508 2.38125,-0.508 1.87325,0 3.175,0.79375 1.3335,0.79375 2.032,2.31775 0.73025,1.49225 0.73025,3.71475 v 9.271 h -4.09575 v -8.73125 q 0,-1.8415 -0.73025,-2.76225 -0.73025,-0.92075 -2.19075,-0.92075 -1.49225,0 -2.286,0.9525 -0.762,0.92075 -0.762,2.76225 v 8.6995 h -4.064 z"
         style="font-weight:bold;-inkscape-font-specification:'Albert Sans Bold';stroke-width:0.5;fill:#ffffff"
         id="path24334" />
      <path
         d="m 164.07326,112.97708 -0.508,0.0635 v -9.42975 h 4.064 v 22.86 h -3.683 l -0.254,-1.9685 q -0.762,0.889 -2.032,1.55575 -1.23825,0.635 -2.88925,0.635 -2.06375,0 -3.65125,-1.016 -1.5875,-1.016 -2.4765,-2.82575 -0.889,-1.8415 -0.889,-4.318 0,-2.4765 0.889,-4.318 0.889,-1.8415 2.4765,-2.82575 1.5875,-1.016 3.65125,-1.016 1.87325,0 3.20675,0.762 1.36525,0.762 2.0955,1.8415 z m -7.96925,5.55625 q 0,2.00025 1.016,3.2385 1.04775,1.2065 2.69875,1.2065 1.016,0 1.8415,-0.508 0.85725,-0.53975 1.36525,-1.524 0.53975,-0.98425 0.53975,-2.413 0,-1.42875 -0.53975,-2.413 -0.508,-0.98425 -1.36525,-1.49225 -0.8255,-0.53975 -1.8415,-0.53975 -1.651,0 -2.69875,1.23825 -1.016,1.2065 -1.016,3.20675 z"
         style="font-weight:bold;-inkscape-font-specification:'Albert Sans Bold';stroke-width:0.5;fill:#ffffff"
         id="path24336" />
      <path
         d="m 180.86899,126.47083 -0.3175,-1.93675 q -0.79375,0.98425 -1.80975,1.55575 -0.98425,0.5715 -2.667,0.5715 -1.5875,0 -2.794,-0.53975 -1.17475,-0.5715 -1.8415,-1.55575 -0.66675,-1.016 -0.66675,-2.38125 0,-2.00025 1.42875,-3.302 1.4605,-1.3335 4.3815,-1.68275 l 3.96875,-0.4445 v -1.11125 q 0,-0.66675 -0.60325,-1.23825 -0.60325,-0.5715 -1.905,-0.5715 -1.143,0 -2.00025,0.5715 -0.8255,0.53975 -1.11125,1.651 l -3.4925,-1.27 q 0.635,-2.12725 2.413,-3.27025 1.778,-1.143 4.3815,-1.143 3.175,0 4.7625,1.5875 1.61925,1.55575 1.61925,4.1275 v 10.38225 z m -0.3175,-6.88975 -3.429,0.4445 q -1.04775,0.127 -1.5875,0.635 -0.53975,0.47625 -0.53975,1.17475 0,0.66675 0.53975,1.143 0.53975,0.4445 1.524,0.4445 1.11125,0 1.87325,-0.41275 0.79375,-0.41275 1.2065,-1.2065 0.41275,-0.79375 0.41275,-1.9685 z"
         style="font-weight:bold;-inkscape-font-specification:'Albert Sans Bold';stroke-width:0.5;fill:#ffffff"
         id="path24338" />
    </g>
  </g>
</svg>
